<?xml version="1.0" standalone="no"?>
<!DOCTYPE svg PUBLIC "-//W3C//DTD SVG 20010904//EN"
 "http://www.w3.org/TR/2001/REC-SVG-20010904/DTD/svg10.dtd">
<svg version="1.0" xmlns="http://www.w3.org/2000/svg"
 width="1024.000000pt" height="1024.000000pt" viewBox="0 0 1024.000000 1024.000000"
 preserveAspectRatio="xMidYMid meet">
<metadata>
Created by potrace 1.11, written by Peter Selinger 2001-2013
</metadata>
<g transform="translate(0.000000,1024.000000) scale(0.100000,-0.100000)"
fill="#000000" stroke="none">
<path d="M0 10166 c0 -49 13 -65 35 -46 18 15 30 -8 23 -45 -6 -30 -3 -31 24
-5 12 11 25 20 30 20 12 0 21 -48 14 -78 -4 -15 -11 -45 -15 -66 -5 -22 -17
-46 -28 -53 -10 -7 -26 -20 -36 -29 -11 -8 -25 -13 -33 -10 -12 5 -14 -194
-14 -1381 0 -1247 2 -1388 16 -1404 14 -16 14 -20 -1 -50 -20 -37 -15 -121 12
-203 14 -44 14 -50 0 -57 -9 -5 -13 -17 -10 -28 3 -10 0 -22 -6 -25 -15 -10
-14 -99 1 -114 9 -9 9 -20 1 -45 -14 -39 -16 -197 -2 -213 6 -8 6 -20 -2 -37
-9 -20 -8 -30 5 -48 10 -15 16 -44 16 -81 0 -44 4 -58 14 -58 8 0 18 5 21 10
3 6 1 10 -4 10 -26 0 -11 88 28 166 38 75 39 80 24 108 -12 24 -13 34 -4 49 9
14 9 22 0 33 -9 11 -8 18 5 32 9 11 16 36 16 59 0 51 28 142 52 167 14 15 15
22 6 28 -10 6 -4 16 19 37 36 34 35 60 -4 100 -24 25 -30 41 -13 41 6 0 10 -5
10 -11 0 -5 12 -9 28 -8 51 4 72 -1 72 -17 0 -10 7 -14 22 -12 29 4 34 24 7
31 -18 5 -21 11 -17 41 l4 35 -56 -1 c-30 -1 -58 -6 -62 -11 -4 -6 -13 -3 -24
7 -16 17 -16 17 2 14 15 -2 20 4 22 33 2 21 12 45 23 54 10 10 19 24 19 32 0
20 51 65 67 59 9 -4 13 4 13 23 0 16 6 32 12 35 7 3 3 3 -9 0 -27 -6 -51 28
-30 43 20 16 69 14 88 -3 16 -14 18 -13 24 15 3 16 13 35 22 42 13 11 18 10
30 -6 7 -11 12 -27 9 -35 -16 -51 -17 -60 -8 -60 6 0 15 23 21 51 13 59 39
109 58 109 8 0 13 13 13 34 0 19 3 42 7 52 5 14 2 16 -15 12 -28 -8 -49 16
-32 36 8 11 18 12 36 5 14 -5 41 -9 60 -9 19 0 34 -4 34 -10 0 -5 18 -10 40
-10 36 0 40 3 40 25 0 20 -5 25 -25 25 -30 0 -32 11 -7 33 25 23 39 21 53 -4
8 -16 8 -23 -1 -29 -13 -8 -5 -50 10 -50 13 0 32 39 25 50 -8 13 14 52 25 45
10 -6 30 26 30 49 0 9 -7 16 -15 16 -8 0 -15 6 -15 14 0 9 7 12 20 9 16 -4 20
0 20 20 0 65 33 107 84 107 20 0 36 5 36 10 0 6 -13 10 -29 10 -16 0 -42 3
-59 6 -27 5 -33 3 -43 -20 -8 -17 -20 -26 -36 -26 -20 0 -23 5 -23 39 0 25 5
41 15 45 8 3 15 12 15 20 0 16 -21 26 -56 26 -15 0 -24 6 -24 15 0 18 12 19
27 4 9 -9 23 -6 54 9 24 12 45 19 48 15 4 -3 0 -8 -7 -10 -10 -4 -8 -9 5 -18
17 -13 17 -14 -2 -29 -19 -14 -19 -15 8 -27 21 -10 35 -10 67 0 22 6 40 17 40
24 1 18 49 50 66 43 9 -3 14 1 14 13 0 34 52 37 64 5 4 -12 12 -8 35 15 17 18
36 28 45 25 18 -7 28 9 43 71 10 43 9 54 -5 75 -13 20 -17 22 -20 8 -4 -19
-26 -30 -47 -22 -19 8 -19 28 0 47 17 18 110 41 125 32 15 -9 24 23 10 40 -6
7 -21 15 -33 17 -21 3 -21 4 7 29 21 20 30 39 33 73 5 41 3 49 -22 70 -32 28
-26 46 15 46 28 0 49 15 30 22 -6 2 -6 8 1 18 8 13 11 13 20 -3 6 -9 14 -15
20 -12 5 3 6 -1 3 -9 -4 -11 0 -16 13 -16 27 0 63 28 63 50 0 10 11 27 25 38
14 11 25 27 25 36 0 9 9 25 20 36 l20 20 -30 0 c-21 0 -30 -5 -30 -16 0 -8 -5
-24 -11 -35 -10 -20 -11 -20 -30 2 -19 22 -27 75 -10 65 5 -3 23 -1 40 5 42
15 52 52 20 78 l-24 19 30 12 c17 6 36 13 43 15 7 3 12 23 12 50 0 48 23 95
46 95 10 0 14 12 14 38 0 39 23 72 49 72 8 0 9 5 2 19 -13 23 15 54 28 32 10
-16 26 3 35 42 8 32 34 46 47 26 7 -11 10 -9 15 8 4 14 17 24 35 28 16 4 29
12 29 20 0 7 17 15 40 19 46 7 48 11 18 36 l-23 18 28 11 c16 6 44 11 63 11
30 0 34 -3 34 -26 0 -15 -6 -32 -14 -38 -8 -6 -17 -26 -21 -44 -5 -25 -3 -33
11 -39 10 -4 19 -2 22 5 5 17 93 15 119 -3 27 -19 80 -10 94 16 12 24 35 24
47 2 9 -15 13 -13 36 13 14 16 26 23 26 17 0 -7 5 -13 11 -13 5 0 8 4 4 9 -3
5 4 16 15 24 21 15 21 15 -7 36 -20 16 -39 22 -68 20 -53 -4 -99 25 -85 52 9
16 14 17 30 6 11 -6 20 -19 20 -28 0 -13 11 -18 44 -21 61 -4 92 4 88 25 -2
10 4 17 13 17 8 0 15 5 15 10 0 6 5 10 10 10 6 0 21 12 33 26 13 15 43 32 72
39 28 8 41 14 30 15 -19 1 -19 1 -2 14 21 16 22 42 2 50 -19 7 -19 26 0 26 8
0 15 -7 15 -15 0 -19 -2 -19 48 5 31 15 52 19 77 14 29 -5 35 -3 35 11 0 15
-6 17 -46 11 -56 -7 -89 7 -75 32 7 12 5 22 -6 34 -15 17 -15 20 2 38 10 11
24 20 32 20 7 0 13 7 13 15 0 8 16 22 36 30 45 18 44 18 44 0 0 -22 16 -18 38
10 12 15 30 25 46 25 24 0 26 4 26 40 0 22 3 40 8 40 13 0 42 96 42 141 0 23
3 39 7 35 4 -4 6 -27 4 -51 -2 -44 -2 -45 28 -45 29 0 31 2 31 39 0 23 -5 41
-12 44 -10 3 -10 8 1 21 13 16 16 15 37 -5 l23 -22 30 25 c32 27 117 44 204
39 29 -2 47 1 47 8 0 6 -9 11 -20 11 -38 0 -115 47 -82 51 4 0 18 2 32 5 91
14 150 16 150 5 0 -7 5 -9 10 -6 5 3 10 10 10 16 0 5 -641 9 -1690 9 l-1690 0
0 -44z m2804 -249 l7 -28 -22 22 c-17 17 -19 23 -8 30 16 9 15 11 23 -24z
m-554 -338 c0 -5 -10 -9 -21 -9 -18 0 -19 2 -9 15 12 15 30 12 30 -6z m61 -9
c5 0 9 -12 8 -27 l0 -28 -12 25 c-6 14 -16 28 -21 31 -5 4 -5 13 0 20 7 11 9
10 12 -3 2 -10 8 -18 13 -18z m182 -22 c39 -20 10 -42 -65 -50 l-48 -6 0 38 0
38 48 -6 c26 -2 55 -9 65 -14z m-173 -128 c0 -5 -7 -10 -16 -10 -8 0 -12 5 -9
10 3 6 10 10 16 10 5 0 9 -4 9 -10z m-200 -32 c27 -9 40 -19 40 -30 0 -10 -1
-18 -2 -18 -2 0 -21 7 -43 15 -22 8 -57 14 -77 15 -27 0 -38 4 -38 15 0 19 63
20 120 3z m-550 -373 c0 -9 -9 -15 -21 -15 -18 0 -19 2 -9 15 7 8 16 15 21 15
5 0 9 -7 9 -15z m-557 -542 c-7 -2 -19 -2 -25 0 -7 3 -2 5 12 5 14 0 19 -2 13
-5z m217 -12 c12 -23 5 -47 -16 -55 -10 -4 -14 2 -14 19 0 14 -5 25 -11 25 -8
0 -8 5 1 15 17 20 27 19 40 -4z m-175 -161 c3 -5 -1 -10 -10 -10 -9 0 -13 5
-10 10 3 6 8 10 10 10 2 0 7 -4 10 -10z m-198 -96 c-3 -3 -12 -4 -19 -1 -8 3
-5 6 6 6 11 1 17 -2 13 -5z m115 -38 c-3 -5 -9 -1 -13 10 -12 31 -10 39 5 19
8 -11 12 -24 8 -29z m-55 2 c-3 -8 -6 -5 -6 6 -1 11 2 17 5 13 3 -3 4 -12 1
-19z m143 1 c0 -6 -7 -17 -15 -25 -13 -14 -16 -14 -21 1 -4 10 -1 21 7 26 19
12 29 11 29 -2z m-286 -8 c4 -5 0 -11 -6 -14 -18 -5 -48 3 -48 14 0 12 47 12
54 0z m-6 -71 c-7 -27 -7 -53 0 -80 8 -32 7 -40 -4 -40 -8 0 -14 5 -14 11 0 7
-17 27 -37 45 -35 30 -36 33 -18 40 28 11 55 36 55 51 0 7 6 13 14 13 11 0 12
-8 4 -40z m137 30 c-3 -5 -15 -10 -26 -10 -10 0 -19 5 -19 10 0 6 12 10 26 10
14 0 23 -4 19 -10z m5 -140 c0 -5 -7 -10 -15 -10 -8 0 -15 5 -15 10 0 6 7 10
15 10 8 0 15 -4 15 -10z m28 -30 c7 0 10 -4 7 -10 -11 -17 -65 -12 -65 6 0 12
6 15 23 10 12 -3 28 -6 35 -6z m-221 -132 c-3 -8 -6 -5 -6 6 -1 11 2 17 5 13
3 -3 4 -12 1 -19z m-509 -121 c3 -35 4 -36 20 -21 15 16 17 14 33 -22 18 -39
23 -102 13 -139 -7 -27 -49 -56 -69 -49 -9 4 -14 11 -12 18 2 6 -6 18 -17 27
-17 14 -18 21 -10 40 8 17 8 29 0 42 -9 14 -8 20 5 27 12 7 15 21 11 66 -4 45
-2 56 9 52 8 -2 15 -21 17 -41z m509 37 c-3 -3 -12 -4 -19 -1 -8 3 -5 6 6 6
11 1 17 -2 13 -5z m-77 -54 c0 -16 -5 -30 -11 -30 -5 0 -8 4 -4 9 3 5 1 13 -5
16 -8 5 -7 11 1 21 16 20 19 18 19 -16z m68 8 c21 -21 13 -38 -18 -38 -33 0
-35 3 -20 31 12 22 21 24 38 7z m-68 -78 c0 -5 -18 -10 -40 -10 -22 0 -40 5
-40 10 0 6 18 10 40 10 22 0 40 -4 40 -10z m-254 -77 c-10 -10 -19 5 -10 18 6
11 8 11 12 0 2 -7 1 -15 -2 -18z m-176 -227 c0 -26 -16 -36 -61 -36 -29 0 -35
12 -23 44 4 11 19 16 45 16 34 0 39 -3 39 -24z m-56 -245 c3 -5 -1 -12 -10
-15 -25 -10 -34 -7 -34 9 0 16 35 21 44 6z"/>
<path d="M218 7493 c7 -3 16 -2 19 1 4 3 -2 6 -13 5 -11 0 -14 -3 -6 -6z"/>
<path d="M4301 10183 c19 -16 54 -47 78 -70 23 -23 51 -45 62 -48 10 -4 19
-11 19 -16 0 -17 70 -87 100 -99 16 -7 32 -20 35 -30 3 -10 15 -20 25 -23 13
-3 20 -14 20 -29 0 -12 9 -38 20 -56 25 -41 26 -103 2 -125 -23 -21 -83 -22
-137 -2 -57 20 -75 19 -75 -6 0 -29 30 -80 60 -103 41 -31 200 -197 245 -256
36 -47 120 -169 163 -235 35 -55 56 -135 36 -135 -11 0 -85 63 -139 118 -27
29 -54 52 -59 52 -5 0 -6 -21 -2 -47 4 -27 10 -64 13 -83 3 -19 9 -40 13 -45
9 -11 27 -203 37 -392 3 -62 10 -113 14 -113 10 0 79 -103 79 -117 0 -6 6 -16
14 -22 18 -15 57 -92 51 -101 -9 -14 -54 2 -60 21 -4 11 -18 26 -33 34 -15 7
-58 46 -97 85 -38 39 -71 67 -73 62 -5 -17 52 -128 85 -165 11 -12 33 -41 48
-64 18 -29 35 -43 49 -43 12 0 26 -8 32 -17 6 -10 36 -47 67 -83 30 -36 58
-77 62 -92 4 -15 15 -34 26 -44 10 -9 19 -23 19 -31 0 -25 41 -135 56 -150 9
-9 14 -35 14 -75 0 -46 4 -64 18 -74 23 -18 35 -17 29 0 -3 8 3 65 13 128 18
116 51 222 89 293 11 22 21 44 21 48 0 9 35 56 65 88 8 9 15 21 15 27 0 6 12
17 27 24 16 8 28 23 30 38 2 14 11 31 21 38 34 25 98 91 152 155 30 36 60 66
67 66 6 1 16 14 21 30 6 16 31 57 56 92 26 35 51 82 57 104 6 22 18 48 26 57
23 26 38 166 35 338 -3 186 -5 196 -37 204 -14 4 -25 13 -25 22 0 33 -84 183
-145 259 -176 217 -215 262 -259 295 -17 13 -19 13 -11 0 9 -15 12 -18 69 -88
22 -26 36 -55 36 -71 0 -14 7 -36 15 -49 9 -12 19 -44 22 -72 l6 -50 -31 0
c-34 0 -33 -1 -117 101 -82 99 -114 129 -184 178 -65 44 -73 50 -135 107 -21
19 -51 38 -67 41 -15 3 -39 18 -53 34 -15 17 -36 29 -50 29 -15 0 -27 7 -31
19 -3 12 -18 21 -41 24 -21 4 -46 18 -63 36 -22 23 -38 31 -64 31 -19 0 -40 6
-46 14 -13 15 -80 27 -149 27 -28 0 -45 5 -49 14 -4 12 -29 15 -120 15 l-116
0 34 -27z"/>
<path d="M8798 10198 c9 -9 15 -9 24 0 9 9 7 12 -12 12 -19 0 -21 -3 -12 -12z"/>
<path d="M8863 10196 c9 -7 17 -19 17 -26 0 -7 -8 -19 -17 -26 -17 -13 -17
-13 0 -14 11 0 17 -8 17 -23 0 -27 28 -57 53 -57 13 0 17 -9 17 -40 0 -36 -2
-40 -26 -40 -14 0 -23 -4 -19 -10 3 -5 17 -10 31 -10 13 0 24 5 24 10 0 22 22
8 33 -19 9 -24 19 -31 50 -37 27 -4 43 -2 53 8 9 8 30 12 59 10 42 -4 45 -6
45 -33 0 -27 3 -29 40 -29 29 0 40 4 40 15 0 23 18 18 45 -12 20 -22 26 -25
34 -14 11 18 31 5 31 -20 0 -10 4 -19 10 -19 5 0 7 -7 4 -15 -4 -10 -11 -12
-22 -6 -12 6 -32 2 -63 -13 -32 -16 -50 -20 -61 -13 -8 6 -24 7 -34 2 -27 -11
-97 -5 -106 8 -9 13 -28 -8 -28 -30 0 -8 -13 -13 -32 -13 -39 0 -63 -13 -54
-29 10 -16 36 -14 36 3 0 9 20 15 61 20 102 10 115 8 147 -23 26 -27 29 -34
24 -80 -2 -28 -9 -51 -15 -51 -5 0 -3 -8 6 -18 10 -10 17 -25 17 -32 0 -11 3
-11 12 -2 19 19 48 15 48 -8 0 -16 7 -20 30 -20 33 0 35 3 20 30 -13 25 -2 50
21 50 17 0 18 -3 7 -20 -11 -17 -10 -22 2 -30 8 -5 23 -10 34 -10 10 0 30 -12
43 -27 l25 -26 -23 -19 c-22 -17 -23 -19 -6 -29 9 -5 17 -18 17 -29 0 -30 11
-50 27 -50 8 0 26 -9 40 -20 14 -11 29 -18 33 -15 17 11 20 58 5 87 -21 44
-19 49 17 34 19 -8 38 -27 47 -47 10 -22 25 -35 39 -37 15 -2 22 -9 20 -19 -5
-25 -29 -28 -35 -4 -3 12 -11 21 -19 21 -17 0 -8 -60 12 -76 8 -6 14 -21 14
-32 0 -15 5 -20 15 -16 8 4 15 12 15 18 0 17 24 66 32 66 4 0 10 -9 13 -20 7
-23 25 -26 43 -8 9 9 12 -2 12 -50 0 -62 10 -78 29 -44 9 16 11 16 25 -3 14
-17 17 -18 26 -5 8 13 10 12 10 -3 0 -10 11 -22 24 -26 24 -10 43 -41 24 -41
-6 0 -6 -6 3 -16 12 -14 14 -14 20 3 4 10 8 35 8 56 1 30 5 37 21 37 18 0 20
-7 20 -80 0 -79 0 -80 25 -80 21 0 26 -6 31 -40 4 -22 11 -40 15 -40 5 0 6 17
3 38 -5 34 -2 42 25 68 37 35 40 54 6 54 -30 0 -31 12 -9 76 9 26 16 68 17 94
1 26 7 53 14 61 6 8 11 25 10 39 0 14 3 44 7 68 7 39 6 44 -13 49 -28 7 -27
31 2 35 12 2 22 10 22 18 0 8 -10 16 -22 18 -28 4 -30 22 -3 22 27 0 44 34 30
61 -15 27 -7 159 10 169 7 5 8 9 2 11 -7 3 -7 18 0 49 16 74 22 190 9 190 -14
0 -14 35 -1 61 8 13 7 19 0 19 -7 0 -9 9 -6 20 3 11 9 29 12 40 5 20 1 20
-555 20 -429 0 -566 -3 -581 -12 -16 -10 -24 -10 -40 0 -12 7 -56 12 -117 12
-84 -1 -95 -3 -80 -14z m497 -126 c0 -5 18 -13 40 -16 22 -4 40 -10 40 -14 0
-5 15 -13 33 -20 l32 -11 -24 -20 c-16 -13 -38 -19 -72 -19 -42 0 -49 3 -49
20 0 11 -4 20 -8 20 -16 0 -31 47 -19 59 14 14 27 14 27 1z m-80 -85 c0 -8 -4
-15 -10 -15 -5 0 -7 7 -4 15 4 8 8 15 10 15 2 0 4 -7 4 -15z m76 -93 c-12 -11
-18 7 -10 30 l8 23 4 -23 c2 -13 1 -26 -2 -30z m222 -2 c12 0 22 5 22 10 0 6
6 10 14 10 15 0 30 -29 20 -39 -4 -3 -9 0 -11 7 -7 19 -23 14 -23 -7 0 -11 -9
-21 -22 -24 -13 -2 -30 -8 -39 -11 -12 -5 -18 0 -22 19 -2 15 -2 36 0 46 5 18
7 18 23 4 9 -8 26 -15 38 -15z m127 -74 c15 -15 10 -26 -12 -26 -7 0 -13 9
-13 20 0 24 6 25 25 6z m-55 -71 c0 -8 -7 -15 -15 -15 -16 0 -20 12 -8 23 11
12 23 8 23 -8z m-290 -70 c0 -20 -5 -25 -25 -25 -29 0 -31 7 -8 32 22 25 33
23 33 -7z m130 -64 c0 -26 -5 -41 -16 -45 -27 -10 -29 -7 -26 39 3 36 8 45 23
45 15 0 19 -7 19 -39z m94 24 c-4 -8 -10 -15 -14 -15 -4 0 -10 7 -14 15 -4 10
1 15 14 15 13 0 18 -5 14 -15z m573 -7 c-3 -8 -6 -5 -6 6 -1 11 2 17 5 13 3
-3 4 -12 1 -19z m-736 -8 c11 0 19 -4 19 -10 0 -6 -33 -10 -80 -10 -68 0 -80
3 -80 16 0 15 9 16 61 10 34 -3 70 -6 80 -6z m209 -134 c0 -2 -7 -6 -15 -10
-8 -3 -15 -1 -15 4 0 6 7 10 15 10 8 0 15 -2 15 -4z m130 -6 c0 -5 -7 -7 -15
-4 -8 4 -15 8 -15 10 0 2 7 4 15 4 8 0 15 -4 15 -10z m-60 -79 c0 -6 -4 -13
-10 -16 -5 -3 -10 1 -10 9 0 9 5 16 10 16 6 0 10 -4 10 -9z m-100 -21 c0 -5
-18 -10 -40 -10 -22 0 -40 5 -40 10 0 6 18 10 40 10 22 0 40 -4 40 -10z m451
-183 c-15 -19 -51 -10 -51 13 0 23 30 31 49 14 11 -10 12 -16 2 -27z"/>
<path d="M8616 10164 c-11 -27 -7 -36 14 -31 13 3 21 -1 25 -14 7 -21 41 -26
48 -6 5 13 -50 67 -69 67 -6 0 -15 -7 -18 -16z"/>
<path d="M8715 10171 c-3 -6 4 -15 16 -21 15 -9 19 -18 15 -35 -9 -35 12 -41
39 -11 13 14 29 26 35 26 6 0 8 5 5 10 -3 6 -19 10 -35 10 -15 0 -30 7 -34 15
-6 17 -32 20 -41 6z"/>
<path d="M8778 10053 c7 -3 16 -2 19 1 4 3 -2 6 -13 5 -11 0 -14 -3 -6 -6z"/>
<path d="M2960 10034 c0 -8 5 -12 10 -9 6 3 10 10 10 16 0 5 -4 9 -10 9 -5 0
-10 -7 -10 -16z"/>
<path d="M8881 10013 c-1 -37 -4 -43 -23 -43 -19 0 -20 -2 -6 -12 9 -7 18 -20
21 -28 2 -8 8 11 12 42 4 31 5 63 2 70 -3 7 -6 -6 -6 -29z"/>
<path d="M5973 10023 c-49 -6 -60 -27 -32 -60 34 -40 119 -129 232 -243 53
-55 97 -103 97 -107 0 -4 13 -21 29 -38 15 -16 39 -56 51 -87 13 -32 27 -58
31 -58 13 0 69 -90 69 -109 0 -11 -8 -28 -17 -40 l-18 -21 -45 24 c-30 16 -46
32 -48 47 -2 13 -13 29 -23 37 -10 7 -19 20 -19 28 0 8 -16 24 -35 35 -20 12
-35 29 -35 39 0 11 -4 22 -10 25 -5 3 -10 14 -10 23 0 10 -10 28 -23 42 -13
14 -31 37 -41 52 -10 16 -29 28 -44 30 -18 2 -28 10 -32 28 -4 15 -15 26 -30
30 -15 4 -26 14 -28 27 -2 15 -12 22 -37 26 -19 3 -46 17 -61 30 -32 30 -72
52 -80 45 -6 -7 47 -111 59 -116 4 -2 14 -20 22 -40 9 -19 24 -42 35 -49 11
-8 20 -20 20 -28 0 -18 -54 -29 -79 -16 -24 13 -61 14 -61 2 0 -5 7 -16 15
-25 8 -8 15 -19 15 -23 0 -5 10 -18 23 -29 29 -25 149 -268 177 -359 28 -90
35 -225 15 -297 -8 -29 -21 -79 -30 -110 -36 -133 -141 -280 -280 -393 -103
-83 -165 -151 -165 -178 0 -15 -9 -36 -19 -46 -29 -29 -41 -56 -41 -90 0 -18
-17 -54 -45 -97 -41 -60 -55 -94 -39 -94 12 0 59 65 65 89 3 14 10 25 16 24 6
-1 25 11 43 27 19 17 41 30 50 30 9 0 25 9 35 20 10 11 28 20 39 20 12 0 27 9
34 20 8 14 23 20 47 20 44 0 45 -13 6 -83 -22 -40 -30 -70 -34 -128 -3 -42
-11 -86 -18 -97 -22 -36 -3 -35 53 0 29 19 76 48 103 64 28 16 59 34 70 41 39
24 85 43 104 43 14 0 23 9 27 25 3 14 12 25 20 25 8 0 14 6 14 13 0 31 84 82
134 82 23 0 31 5 37 25 6 20 7 21 8 5 1 -16 5 -13 17 13 16 30 46 43 58 23 10
-16 -15 -244 -30 -265 -7 -11 -14 -31 -14 -44 0 -14 -19 -43 -47 -73 l-48 -51
50 8 c28 4 64 16 80 28 17 12 37 26 46 31 63 39 99 67 126 98 52 60 109 77
115 35 2 -17 10 -22 33 -23 39 0 43 -23 16 -78 -53 -105 -98 -163 -147 -193
-15 -9 4 -11 82 -7 94 5 104 4 133 -16 40 -29 44 -71 6 -71 -14 0 -25 -4 -25
-10 0 -5 12 -10 26 -10 14 0 41 -12 60 -26 28 -22 34 -33 34 -65 0 -21 -4 -40
-9 -43 -24 -15 -11 -140 18 -169 6 -6 11 -19 11 -29 0 -13 10 -20 30 -25 20
-4 36 -16 46 -34 8 -16 21 -29 30 -29 17 0 44 -23 44 -39 0 -5 18 -17 39 -27
22 -9 44 -28 50 -41 6 -12 19 -23 29 -23 20 0 45 -24 55 -52 3 -10 22 -20 44
-24 21 -3 45 -12 53 -19 8 -7 25 -16 38 -19 12 -4 22 -11 22 -16 0 -4 21 -14
46 -21 25 -8 50 -22 55 -31 5 -10 24 -21 42 -26 17 -5 33 -15 33 -23 1 -8 2
-19 3 -26 0 -6 11 -13 24 -15 13 -2 23 -11 25 -24 2 -13 17 -27 42 -38 22 -10
40 -24 40 -32 0 -8 12 -19 27 -25 44 -16 54 -28 42 -50 -5 -10 -16 -19 -24
-19 -12 0 -9 -9 10 -40 14 -22 25 -48 25 -59 0 -11 7 -24 16 -29 12 -6 14 -23
12 -73 -4 -84 -22 -88 -68 -12 -42 69 -67 93 -95 93 -11 0 -24 10 -30 23 -8
17 -20 23 -53 25 -47 3 -72 -10 -72 -39 0 -10 -6 -22 -14 -26 -9 -5 -19 -52
-30 -138 -23 -175 -22 -173 -59 -195 -57 -35 -60 -32 -53 83 l6 102 -25 -78
c-27 -86 -27 -87 -106 -231 -30 -54 -71 -131 -93 -170 -21 -39 -46 -80 -56
-91 -10 -11 -21 -32 -25 -47 -4 -16 -18 -31 -36 -38 -15 -7 -38 -28 -49 -47
-18 -31 -95 -130 -111 -143 -4 -3 -25 -40 -48 -84 -37 -71 -40 -80 -25 -91 18
-13 32 -2 106 83 21 24 38 41 38 39 0 -4 33 24 114 96 17 15 38 27 46 27 9 0
21 5 27 11 18 18 44 3 35 -18 -13 -32 -54 -93 -61 -93 -4 0 -12 -10 -18 -22
-6 -13 -38 -53 -72 -90 -46 -50 -61 -73 -61 -96 0 -37 -57 -193 -76 -208 -17
-14 -31 -91 -37 -203 -3 -58 -9 -88 -19 -95 -40 -29 -51 -77 -52 -218 -1 -75
-4 -140 -8 -144 -5 -4 -8 -39 -8 -77 0 -61 2 -68 15 -57 9 7 15 29 15 54 0 23
7 51 15 62 9 11 14 42 15 77 0 42 4 57 12 55 7 -3 28 15 46 39 18 24 37 43 42
43 6 0 10 7 10 15 0 9 7 28 17 43 26 43 154 161 168 156 7 -3 16 -1 20 5 11
18 72 13 80 -6 15 -37 18 -232 5 -295 -7 -35 -16 -67 -20 -73 -4 -5 -11 -31
-14 -58 -4 -26 -15 -55 -24 -65 -49 -50 -65 -74 -73 -114 -6 -23 -26 -74 -46
-112 -28 -56 -31 -67 -17 -61 11 5 54 20 96 35 43 15 93 41 113 59 20 17 42
31 50 31 7 0 24 17 36 38 20 32 61 76 101 107 36 28 99 65 110 65 17 0 44 25
142 133 43 48 87 89 97 92 10 3 39 27 66 53 26 26 60 56 76 67 19 14 29 32 34
60 3 22 9 42 12 45 10 8 31 44 37 63 7 19 46 33 63 22 13 -8 15 -115 2 -115
-14 0 -38 -53 -46 -102 -8 -46 -54 -140 -86 -174 -10 -11 -19 -30 -19 -42 0
-13 -10 -26 -27 -34 -15 -7 -29 -21 -31 -31 -6 -31 75 33 208 166 69 68 136
128 149 132 50 15 151 136 151 180 0 16 14 34 67 88 17 17 42 55 56 82 60 122
72 142 108 185 22 26 39 51 39 58 0 17 29 101 51 150 41 90 58 151 79 282 34
218 29 291 -31 417 -16 34 -34 75 -39 90 -28 77 -56 122 -80 128 -14 4 -49 24
-77 46 -45 34 -53 45 -53 72 0 30 5 35 55 61 49 24 71 29 174 33 120 6 134 4
295 -48 16 -5 31 -7 34 -4 19 19 -164 236 -212 251 -11 4 -32 15 -46 25 -14 9
-59 22 -98 27 -91 13 -104 23 -100 76 3 40 5 42 73 76 155 77 155 93 2 79
-139 -12 -204 -25 -228 -48 -18 -17 -38 -20 -128 -23 -153 -4 -215 3 -219 25
-4 20 38 62 76 78 13 5 40 9 60 9 21 0 47 6 58 14 11 8 46 21 79 30 58 15 73
28 87 75 9 31 5 35 -19 23 -10 -6 -142 -13 -293 -17 -212 -6 -279 -11 -291
-21 -21 -18 -26 -18 -31 4 -4 14 -22 22 -69 31 -35 7 -71 17 -79 22 -32 20
-80 39 -100 39 -24 0 -113 45 -130 65 -7 8 -9 18 -7 22 3 5 61 5 129 2 67 -4
139 -6 158 -5 19 1 56 3 82 4 29 1 53 9 64 19 11 11 49 22 102 30 102 15 194
58 251 118 21 22 52 52 67 68 75 72 83 82 90 120 3 22 13 55 20 73 8 18 14 53
14 78 0 25 5 48 10 51 12 8 14 415 1 415 -9 0 -21 -72 -21 -129 0 -21 -7 -46
-15 -57 -8 -10 -15 -31 -15 -46 0 -15 -4 -30 -10 -33 -5 -3 -10 -16 -10 -28 0
-28 -26 -69 -79 -127 -23 -24 -41 -48 -41 -52 0 -4 -15 -8 -34 -8 -42 0 -46
10 -42 108 2 49 9 78 20 91 9 9 20 37 25 62 6 24 17 77 25 118 9 41 22 82 31
91 37 40 45 438 12 570 -9 36 -19 108 -23 160 -5 65 -13 103 -25 120 -9 14
-20 46 -24 72 -3 26 -11 50 -16 54 -11 7 -119 228 -119 244 0 6 -11 15 -25 20
-14 5 -28 17 -31 25 -7 17 -64 21 -64 4 0 -6 11 -43 25 -81 14 -38 27 -95 30
-126 3 -31 13 -108 22 -170 17 -123 14 -313 -7 -351 -28 -53 -90 1 -90 77 0
28 -3 33 -10 22 -9 -13 -13 -12 -30 9 -11 13 -20 29 -20 36 0 6 -9 20 -20 30
-15 13 -20 31 -20 66 0 46 -1 47 -37 56 -24 5 -42 17 -48 31 -5 12 -15 22 -22
22 -12 0 -17 19 -14 47 2 12 -35 37 -54 38 -5 0 -11 10 -13 22 -2 13 -14 31
-28 42 -13 10 -24 26 -24 34 0 17 -41 47 -65 47 -9 0 -15 9 -15 26 0 19 -7 28
-30 35 -18 7 -30 18 -30 29 0 11 -12 22 -30 29 -27 9 -35 20 -31 44 1 4 -19
17 -45 28 -25 12 -54 29 -64 39 -11 11 -34 26 -52 36 -45 22 -98 74 -98 95 0
22 -20 29 -82 29 -46 0 -65 8 -210 96 -88 52 -162 94 -164 91 -3 -2 6 -17 19
-33 13 -16 27 -39 31 -51 4 -13 13 -23 21 -23 7 0 16 -12 20 -27 3 -16 20 -58
36 -95 16 -36 29 -69 29 -72 0 -17 -61 -2 -122 29 -69 35 -201 128 -227 159
-8 9 -28 16 -51 16 -35 0 -38 3 -58 49 -17 43 -26 51 -59 60 -21 6 -43 11 -49
11 -7 0 -19 11 -28 24 -10 16 -27 26 -48 28 -24 2 -36 10 -46 31 -7 15 -20 26
-30 25 -9 0 -31 -3 -49 -5z m1124 -794 c15 -5 41 -11 58 -13 16 -1 42 -13 57
-26 14 -14 38 -34 52 -45 15 -11 35 -35 46 -52 11 -18 25 -33 33 -33 15 0 49
-54 40 -64 -4 -4 -1 -11 7 -16 8 -5 20 -31 26 -57 16 -64 46 -144 66 -174 30
-46 95 -213 113 -289 10 -41 22 -81 28 -87 6 -8 7 -66 2 -155 -5 -114 -3 -163
10 -242 21 -123 12 -261 -20 -292 -8 -9 -15 -25 -15 -37 0 -12 -8 -34 -18 -48
-64 -97 -75 -109 -109 -115 -20 -4 -39 -2 -45 4 -11 11 -7 74 7 106 7 17 5 18
-15 13 -28 -7 -55 10 -41 27 5 6 12 25 15 42 l7 31 -63 -13 c-74 -16 -138 -18
-138 -5 0 26 25 70 60 106 95 96 100 104 100 150 0 24 4 45 10 47 5 2 12 22
16 46 9 55 -11 56 -48 2 -20 -29 -35 -40 -53 -40 -33 0 -33 21 5 170 29 112
38 234 19 246 -4 2 -31 -45 -60 -106 -44 -92 -56 -110 -75 -110 -13 0 -26 6
-31 13 -10 16 -4 58 10 76 15 17 12 127 -4 194 -6 28 -22 77 -35 109 -13 31
-24 75 -24 96 0 23 -10 57 -25 83 -14 24 -31 58 -39 74 -8 17 -27 42 -43 56
-15 15 -41 45 -58 67 -19 26 -38 41 -52 42 -21 0 -23 -5 -23 -50 0 -51 -25
-130 -41 -130 -5 0 -9 -9 -9 -20 0 -57 -92 -174 -157 -199 -19 -8 -33 -21 -35
-33 -2 -15 -15 -24 -43 -32 -22 -7 -46 -11 -52 -10 -7 1 -17 2 -23 3 -15 2
-12 28 6 45 8 9 14 24 12 34 -3 14 -11 16 -43 13 -98 -11 -100 -10 -99 35 0
33 12 59 56 125 30 46 66 103 79 126 13 24 30 43 37 43 8 0 19 14 25 30 7 18
19 30 29 30 10 0 25 12 35 28 9 15 29 39 45 54 15 15 28 35 28 46 0 12 13 25
38 36 20 9 53 25 72 36 28 15 56 19 147 20 61 0 124 -5 140 -11z m-520 -989
c31 0 43 -4 40 -12 -4 -14 -42 -16 -101 -4 -29 6 -36 10 -25 17 8 5 20 7 27 4
8 -3 34 -5 59 -5z m-147 -14 c0 -8 -12 -17 -27 -20 -53 -10 -398 -11 -401 -1
-4 15 146 32 296 34 108 1 132 -2 132 -13z m-505 -10 c26 -13 26 -15 8 -25
-25 -13 -74 16 -52 30 17 11 12 11 44 -5z m-75 -10 c0 -9 -39 -13 -51 -5 -10
6 -4 9 19 9 17 0 32 -2 32 -4z m527 -168 c-3 -8 -6 -5 -6 6 -1 11 2 17 5 13 3
-3 4 -12 1 -19z m1083 -1124 c17 -17 -32 -27 -66 -14 -16 6 -31 7 -38 1 -17
-13 -75 -19 -79 -7 -2 6 2 16 10 21 18 14 159 13 173 -1z m-680 -1678 c0 -2
-8 -10 -17 -17 -16 -13 -17 -12 -4 4 13 16 21 21 21 13z"/>
<path d="M3838 9971 c-7 -10 -28 -22 -46 -25 -28 -7 -32 -11 -32 -41 0 -25 -5
-35 -21 -40 -11 -4 -24 -18 -29 -31 -5 -13 -16 -24 -23 -24 -20 0 -47 -33 -47
-58 0 -12 -9 -26 -20 -32 -12 -6 -20 -21 -20 -36 0 -13 -7 -27 -15 -30 -8 -3
-17 -15 -21 -27 -8 -26 -64 -119 -80 -132 -6 -5 -17 -27 -24 -47 -22 -69 -33
-45 -26 55 7 109 27 191 56 229 28 38 27 70 -2 66 -15 -2 -25 -13 -32 -35 -5
-18 -13 -33 -17 -33 -5 0 -18 -18 -29 -39 -11 -22 -31 -52 -45 -67 -13 -14
-27 -43 -30 -63 -3 -20 -15 -64 -26 -99 -10 -35 -23 -91 -28 -125 -9 -61 -47
-217 -53 -220 -31 -16 -44 -29 -46 -50 -2 -14 -10 -31 -18 -37 -8 -7 -14 -20
-14 -30 0 -10 -8 -21 -17 -24 -30 -12 -127 5 -150 26 -29 27 -74 31 -238 21
-123 -8 -144 -12 -162 -30 -14 -14 -40 -23 -82 -28 -58 -7 -101 -31 -101 -57
0 -4 -10 -8 -23 -8 -13 0 -27 -4 -32 -9 -6 -5 -21 -11 -34 -13 -17 -2 -27 -12
-32 -30 -4 -15 -23 -42 -41 -60 -39 -38 -53 -65 -39 -82 5 -6 11 -27 13 -46 3
-32 1 -35 -35 -43 -26 -6 -39 -16 -43 -32 -4 -15 -18 -26 -45 -34 -29 -9 -40
-18 -46 -39 -8 -35 -59 -99 -84 -105 -10 -3 -19 -14 -19 -24 0 -26 -19 -43
-47 -43 -14 0 -26 -7 -29 -17 -3 -10 -10 -26 -15 -35 -5 -10 -9 -25 -9 -34 0
-17 -23 -44 -39 -44 -11 0 -51 -101 -51 -130 0 -10 4 -21 8 -24 9 -5 82 61 82
74 0 4 9 10 21 13 11 3 23 15 26 26 3 13 13 20 27 19 41 -2 76 20 76 47 0 21
8 29 38 41 20 8 51 22 69 30 42 19 44 19 74 -19 17 -20 28 -49 31 -81 5 -42 2
-54 -23 -91 -16 -23 -35 -48 -44 -55 -8 -7 -15 -18 -15 -24 0 -7 -16 -20 -35
-29 -24 -11 -35 -24 -35 -38 0 -14 -10 -24 -30 -32 -17 -6 -32 -19 -35 -28 -3
-9 -23 -22 -46 -29 -22 -7 -50 -23 -62 -35 -12 -12 -36 -30 -54 -39 -17 -8
-35 -25 -38 -37 -4 -11 -20 -25 -36 -31 -16 -5 -29 -16 -29 -24 0 -8 -8 -22
-17 -32 -10 -10 -19 -24 -21 -32 -2 -7 -13 -21 -25 -31 -17 -14 -19 -20 -10
-30 9 -9 17 -8 37 5 14 9 43 16 65 16 36 0 40 3 43 28 2 22 9 28 34 30 22 2
35 11 42 27 8 17 23 26 49 31 45 8 74 22 89 42 8 11 50 16 174 23 169 9 243 1
254 -27 3 -8 19 -14 40 -14 18 0 46 -6 60 -14 31 -16 96 -80 96 -95 0 -6 14
-18 30 -26 17 -9 36 -27 42 -40 6 -14 17 -25 25 -25 8 0 22 -13 31 -30 9 -16
22 -30 28 -30 14 0 47 -97 39 -110 -4 -6 -12 -10 -20 -10 -11 0 -11 -4 0 -27
8 -16 19 -66 25 -113 6 -47 12 -97 14 -111 6 -45 -21 -140 -48 -168 -14 -15
-26 -33 -26 -40 0 -6 -16 -19 -35 -27 -19 -8 -35 -19 -35 -24 0 -5 -36 -26
-80 -47 -44 -20 -80 -43 -80 -50 0 -17 43 -27 89 -19 22 3 66 3 99 0 55 -6 60
-9 56 -28 -2 -11 -8 -22 -14 -24 -5 -2 -10 -12 -10 -21 0 -10 -11 -31 -24 -47
-14 -16 -38 -44 -53 -62 -15 -19 -37 -41 -47 -50 -11 -10 -48 -45 -83 -78 -35
-34 -74 -64 -86 -68 -13 -3 -28 -14 -33 -25 -5 -11 -25 -30 -44 -43 -19 -13
-36 -33 -38 -45 -2 -12 -18 -37 -36 -57 -19 -19 -38 -49 -44 -65 -10 -29 -9
-31 13 -31 14 0 37 14 56 35 19 19 38 33 44 31 16 -5 45 13 45 29 0 29 51 75
91 81 21 4 39 10 39 15 0 5 34 9 75 9 l75 0 0 -45 c0 -54 -31 -101 -106 -164
-84 -70 -204 -191 -204 -205 0 -7 -69 -99 -80 -106 -11 -8 -40 -67 -40 -84 0
-8 -4 -16 -9 -18 -5 -1 -13 -16 -17 -31 -6 -27 -5 -28 14 -16 22 14 42 50 42
75 0 12 7 14 31 9 23 -5 34 -2 47 13 26 30 93 62 129 62 29 0 33 -3 33 -28 0
-29 -38 -107 -76 -158 -13 -17 -24 -37 -24 -45 0 -8 -11 -35 -25 -61 -14 -26
-25 -60 -25 -76 0 -20 -8 -35 -23 -45 -15 -9 -34 -46 -55 -103 -18 -49 -37
-97 -42 -106 -6 -10 -10 -29 -10 -43 0 -14 -6 -36 -14 -48 -8 -12 -19 -69 -25
-126 -6 -56 -14 -114 -17 -127 -4 -14 -2 -24 5 -24 6 0 13 10 15 23 3 12 10
47 16 77 6 30 17 61 24 70 7 8 16 31 20 50 6 34 27 65 84 125 16 17 44 52 63
78 33 48 72 77 104 77 23 0 18 -29 -15 -93 -17 -33 -30 -74 -30 -93 0 -26 -8
-44 -30 -66 -64 -64 -65 -69 -64 -333 1 -181 5 -258 18 -315 9 -41 16 -85 16
-98 0 -13 11 -47 24 -75 13 -29 27 -71 31 -94 4 -24 11 -45 16 -49 5 -3 9 -14
9 -25 0 -12 7 -19 19 -19 24 0 31 35 31 149 0 59 6 105 20 146 10 33 22 81 25
107 7 53 27 71 73 66 20 -2 28 -9 30 -28 2 -14 8 -29 13 -35 5 -5 9 -17 9 -26
0 -10 5 -19 12 -21 9 -3 14 -84 19 -304 4 -164 14 -357 23 -429 8 -71 18 -179
21 -240 4 -68 12 -116 20 -125 7 -8 23 -44 35 -80 31 -94 90 -209 115 -226 12
-8 27 -25 33 -39 7 -14 20 -25 31 -25 11 0 32 -11 47 -25 15 -14 31 -25 36
-25 6 0 26 -7 45 -16 43 -21 65 -6 35 24 -32 32 -70 104 -77 147 -4 22 -13 50
-21 62 -17 27 -19 180 -3 220 23 55 34 79 62 119 15 23 27 46 27 52 0 5 11 7
25 4 20 -3 27 1 35 22 5 14 21 31 35 38 14 6 25 15 25 19 0 5 13 15 30 24 34
17 281 21 410 5 65 -8 77 -7 88 8 7 9 11 26 8 37 -3 11 -1 27 4 34 5 9 1 33
-12 65 -12 30 -22 85 -25 136 -3 47 -9 90 -14 96 -5 6 -18 42 -30 80 -11 38
-29 83 -39 99 -10 17 -23 53 -30 82 -6 29 -18 57 -26 64 -8 6 -14 17 -14 23 0
6 -5 27 -10 47 -17 62 -95 80 -136 32 -13 -16 -24 -34 -24 -41 0 -7 -13 -18
-30 -23 -16 -6 -30 -15 -30 -20 0 -5 -4 -9 -9 -9 -16 0 -29 54 -35 140 -7 131
-19 148 -51 76 -42 -94 -68 10 -66 264 1 161 5 199 27 255 6 14 -1 11 -24 -12
-18 -17 -32 -36 -32 -42 0 -6 -4 -11 -9 -11 -16 0 -17 76 -3 197 24 211 25
278 6 341 -26 82 -114 164 -114 106 0 -8 -11 -20 -25 -26 -14 -6 -25 -18 -25
-27 0 -9 -9 -27 -20 -41 -11 -14 -20 -34 -20 -44 0 -11 -9 -39 -20 -62 -12
-23 -23 -65 -27 -93 -5 -48 -15 -62 -27 -43 -3 5 -6 65 -7 134 -1 90 3 135 13
159 29 68 39 105 45 171 5 59 3 74 -18 114 l-24 46 -44 -6 c-28 -4 -49 -13
-59 -27 -23 -32 -56 -21 -60 20 -2 19 1 45 7 58 6 13 16 35 23 49 7 14 25 35
40 46 15 10 28 25 28 31 0 7 10 17 22 22 13 6 24 19 26 30 2 11 10 27 17 35 7
8 18 33 25 55 7 22 29 76 50 120 68 145 72 155 66 170 -4 11 -13 14 -33 9
l-27 -7 22 35 c12 20 22 43 22 52 0 9 11 22 25 28 14 6 25 17 25 24 0 8 15 20
34 28 19 8 40 25 47 38 6 12 27 36 45 51 28 23 34 35 34 68 0 21 -4 39 -10 39
-5 0 -10 15 -10 33 0 32 2 34 53 47 28 7 57 19 62 26 6 7 48 23 94 35 66 16
91 28 117 55 30 30 34 39 34 89 0 39 -4 57 -14 61 -20 8 -38 56 -34 90 2 23 9
30 35 35 41 8 63 26 63 50 0 11 8 27 18 37 10 10 21 26 25 35 4 10 17 17 31
17 34 0 42 20 49 113 4 51 11 85 21 96 9 10 16 26 16 36 0 17 1 17 18 2 35
-32 43 -22 42 56 -1 39 -1 78 -1 85 1 6 14 12 30 12 21 0 36 -8 50 -29 12 -16
21 -33 21 -38 1 -4 16 -26 35 -47 l35 -39 0 39 c0 41 -22 121 -46 164 -7 14
-25 46 -39 72 -14 26 -25 54 -25 63 0 8 -12 20 -26 25 -41 16 -94 82 -75 94
14 9 227 -31 269 -49 17 -8 32 -19 32 -25 0 -5 13 -16 30 -25 16 -8 53 -38 82
-65 29 -27 61 -50 70 -50 10 0 24 -12 32 -27 8 -16 45 -60 83 -99 37 -39 78
-84 90 -100 20 -27 22 -28 22 -7 1 12 -3 24 -8 27 -4 3 -11 29 -15 58 -4 28
-12 61 -19 72 -13 24 -26 108 -34 215 l-5 73 44 -31 c59 -42 78 -60 112 -105
67 -90 129 -157 137 -149 4 4 3 26 -2 48 -25 96 -26 89 15 81 20 -4 36 -4 36
-1 0 10 -103 150 -144 195 -88 95 -166 223 -166 269 0 30 -11 51 -26 51 -8 0
-19 12 -24 28 -6 15 -17 38 -24 52 -20 34 -58 194 -54 222 2 19 8 22 32 20 16
-2 39 -10 50 -18 11 -8 29 -14 39 -14 9 0 20 -7 23 -15 11 -28 24 -4 24 46 0
33 -6 56 -16 66 -10 10 -14 27 -12 45 5 29 -12 84 -50 171 -12 27 -22 51 -22
54 0 3 -15 37 -34 77 -19 40 -37 88 -41 108 -4 20 -16 44 -26 54 -10 9 -19 23
-19 30 0 6 -15 31 -34 53 -19 23 -38 50 -41 61 -3 10 -14 22 -24 25 -10 3 -23
23 -30 44 -6 21 -18 42 -26 45 -8 3 -15 16 -15 28 0 26 -24 66 -51 85 -9 7
-19 23 -23 36 -7 28 -82 100 -96 92 -6 -3 -6 -15 0 -28 27 -67 34 -260 14
-377 -29 -166 -38 -200 -55 -205 -10 -3 -22 -19 -28 -36 -10 -29 -12 -30 -67
-27 l-57 3 -18 75 c-26 110 -32 188 -24 296 6 77 10 97 24 101 15 4 51 63 51
84 0 6 11 25 25 43 28 37 32 80 11 102 -20 19 -42 18 -58 -5z m-188 -901 c0
-24 19 -30 98 -30 77 0 89 -5 93 -40 3 -17 13 -27 34 -33 21 -6 36 -20 50 -50
26 -54 111 -196 130 -217 8 -9 15 -26 15 -37 0 -11 7 -26 15 -33 22 -18 18
-45 -7 -57 -20 -9 -30 -4 -75 35 -29 24 -53 50 -53 58 0 17 -32 35 -90 51 -38
10 -47 9 -56 -3 -22 -28 -276 -4 -309 30 -14 14 -32 15 -118 10 -114 -6 -131
-10 -122 -23 6 -12 -26 -31 -51 -31 -17 0 -74 -38 -137 -91 -32 -28 -33 -55 0
-65 51 -16 150 -72 172 -96 13 -15 31 -30 40 -33 9 -3 27 -22 40 -42 13 -21
32 -50 42 -65 22 -31 42 -147 33 -185 -4 -16 -16 -38 -27 -50 -28 -31 -124
-32 -192 -3 -26 11 -53 20 -61 20 -24 0 -15 -31 21 -76 43 -53 44 -69 3 -90
-84 -44 -119 -78 -115 -114 1 -20 8 -26 32 -28 17 -2 36 -10 42 -19 7 -9 25
-25 40 -35 23 -16 25 -19 8 -17 -52 4 -65 -19 -34 -62 23 -33 19 -44 -14 -44
-12 0 -23 -7 -23 -15 -1 -8 -2 -23 -3 -32 -3 -43 -86 -8 -116 48 -19 36 -20
57 -20 409 0 270 3 379 12 396 7 13 19 47 27 74 38 128 67 190 96 205 11 6 20
19 20 30 0 10 14 28 30 40 17 12 30 30 30 42 0 11 8 22 19 25 11 3 24 18 30
34 7 20 17 29 32 29 24 0 48 26 49 53 0 11 10 20 30 23 16 4 32 14 35 24 7 22
47 40 89 40 60 0 93 11 104 35 17 37 112 41 112 5z m-337 -357 c-7 -2 -19 -2
-25 0 -7 3 -2 5 12 5 14 0 19 -2 13 -5z"/>
<path d="M8705 9958 c-4 -10 -4 -26 0 -35 8 -17 8 -17 12 0 3 9 3 25 0 35 -4
16 -4 16 -12 0z"/>
<path d="M8753 9940 c-2 -21 2 -30 12 -30 10 0 15 10 15 30 0 39 -24 39 -27 0z"/>
<path d="M8940 9910 c14 -11 30 -19 35 -19 6 0 4 3 -2 6 -7 2 -13 11 -13 19 0
8 -10 14 -22 14 l-23 0 25 -20z"/>
<path d="M2957 9833 c-12 -11 -8 -23 8 -23 8 0 15 7 15 15 0 16 -12 20 -23 8z"/>
<path d="M2973 9733 c9 -2 17 -8 17 -13 0 -15 55 -28 74 -18 10 5 26 8 37 5
11 -3 19 0 19 8 0 8 -22 14 -61 19 -70 7 -115 7 -86 -1z"/>
<path d="M2828 9718 c9 -9 15 -9 24 0 9 9 7 12 -12 12 -19 0 -21 -3 -12 -12z"/>
<path d="M2750 9687 c0 -20 21 -37 46 -37 14 0 24 -8 27 -21 3 -12 12 -19 19
-17 17 6 23 38 8 38 -7 0 -25 11 -42 25 -32 27 -58 33 -58 12z"/>
<path d="M9035 9560 c20 -22 50 -26 60 -9 9 14 7 15 -39 22 -37 6 -38 6 -21
-13z"/>
<path d="M9143 9554 c-8 -21 13 -42 28 -27 13 13 5 43 -11 43 -6 0 -13 -7 -17
-16z"/>
<path d="M2628 9509 c-10 -5 -18 -14 -18 -18 0 -5 8 -11 18 -15 9 -3 24 -11
33 -17 10 -8 24 -9 35 -4 11 5 23 9 27 9 13 1 37 38 31 47 -9 15 -34 10 -34
-6 0 -8 -4 -15 -10 -15 -5 0 -9 6 -7 13 3 15 -52 21 -75 6z"/>
<path d="M9260 9475 c7 -9 16 -12 19 -7 3 5 13 12 21 15 8 3 0 6 -19 6 -29 1
-32 -1 -21 -14z"/>
<path d="M9440 9480 c0 -5 -7 -10 -15 -10 -21 0 -31 -30 -14 -41 15 -9 50 -2
60 13 10 16 -2 48 -17 48 -8 0 -14 -4 -14 -10z"/>
<path d="M9090 9450 c0 -5 14 -10 30 -10 17 0 30 5 30 10 0 6 -13 10 -30 10
-16 0 -30 -4 -30 -10z"/>
<path d="M9280 9430 c0 -22 13 -23 64 -4 9 3 16 1 16 -5 0 -6 5 -11 12 -11 27
0 -20 31 -55 37 -33 5 -37 3 -37 -17z"/>
<path d="M9310 9373 c1 -29 7 -42 27 -57 l26 -19 -6 24 c-4 13 -7 39 -7 57 0
25 -4 32 -20 32 -17 0 -20 -7 -20 -37z"/>
<path d="M9410 9360 c-21 -40 17 -72 64 -54 22 8 20 17 -9 48 -29 31 -41 33
-55 6z"/>
<path d="M2400 9306 c0 -18 45 -23 55 -6 3 6 0 10 -9 10 -8 0 -21 3 -30 6 -11
4 -16 1 -16 -10z"/>
<path d="M9360 9266 c0 -9 7 -16 16 -16 9 0 14 5 12 12 -6 18 -28 21 -28 4z"/>
<path d="M9680 9135 c0 -51 3 -65 15 -65 16 0 21 62 9 108 -12 43 -24 21 -24
-43z"/>
<path d="M9620 9130 c0 -22 5 -40 10 -40 6 0 10 18 10 40 0 22 -4 40 -10 40
-5 0 -10 -18 -10 -40z"/>
<path d="M9520 9108 c0 -9 -6 -19 -12 -21 -7 -3 -8 -6 -3 -6 6 0 17 4 25 9 12
7 12 12 2 22 -9 9 -12 9 -12 -4z"/>
<path d="M2104 9094 c3 -9 6 -18 6 -20 0 -3 5 -2 10 1 16 10 12 35 -6 35 -11
0 -14 -5 -10 -16z"/>
<path d="M2295 9070 c-3 -5 1 -10 9 -10 9 0 16 5 16 10 0 6 -4 10 -9 10 -6 0
-13 -4 -16 -10z"/>
<path d="M9576 8994 c-8 -21 -8 -21 9 -28 11 -4 15 1 15 19 0 28 -15 33 -24 9z"/>
<path d="M9730 9001 c0 -17 22 -24 30 -11 6 9 23 11 62 7 29 -4 60 -2 68 3 10
7 -13 10 -72 10 -49 0 -88 -4 -88 -9z"/>
<path d="M1680 8940 c0 -5 7 -10 16 -10 8 0 12 5 9 10 -3 6 -10 10 -16 10 -5
0 -9 -4 -9 -10z"/>
<path d="M1670 8840 c19 -13 30 -13 30 0 0 6 -10 10 -22 10 -19 0 -20 -2 -8
-10z"/>
<path d="M1520 8765 c0 -15 4 -24 10 -20 6 3 10 12 10 20 0 8 -4 17 -10 20 -6
4 -10 -5 -10 -20z"/>
<path d="M9646 8731 c-7 -11 22 -23 35 -15 5 3 9 9 9 15 0 12 -37 12 -44 0z"/>
<path d="M1319 8463 c-3 -25 4 -90 11 -103 8 -13 9 -13 14 0 2 8 6 36 9 63 4
41 2 47 -14 47 -11 0 -19 -3 -20 -7z"/>
<path d="M1386 8395 c-9 -14 -12 -25 -7 -25 5 0 11 -10 13 -22 4 -32 31 -34
60 -5 23 23 24 25 6 36 -10 6 -18 18 -18 26 0 24 -36 17 -54 -10z"/>
<path d="M1390 8280 c0 -5 5 -10 10 -10 6 0 10 5 10 10 0 6 -4 10 -10 10 -5 0
-10 -4 -10 -10z"/>
<path d="M1013 7909 c-18 -18 11 -36 49 -31 20 3 28 9 26 21 -4 20 -58 27 -75
10z"/>
<path d="M2175 7684 c-78 -9 -136 -27 -145 -43 -5 -11 -26 -21 -51 -25 -27 -4
-51 -17 -69 -36 -15 -16 -39 -34 -53 -39 -14 -6 -33 -24 -42 -41 -24 -46 -66
-90 -85 -90 -19 0 -50 -30 -50 -48 0 -6 -11 -14 -25 -18 -16 -4 -25 -13 -25
-25 0 -11 -11 -42 -25 -69 -42 -84 -29 -119 28 -76 19 15 45 26 59 26 14 0 42
11 62 25 20 14 41 25 46 25 5 0 24 14 42 30 32 29 57 36 123 32 64 -4 72 -9
79 -54 8 -48 -11 -178 -28 -193 -6 -5 -17 -22 -23 -37 -7 -16 -17 -28 -23 -28
-5 0 -10 -8 -10 -18 0 -11 -9 -27 -20 -37 -11 -10 -20 -25 -20 -34 -1 -19 -35
-60 -73 -84 -15 -9 -27 -25 -27 -33 0 -9 -13 -32 -30 -51 -16 -18 -30 -40 -30
-48 0 -8 -5 -15 -10 -15 -6 0 -16 -12 -23 -27 -6 -16 -20 -34 -29 -41 -10 -7
-18 -22 -18 -33 0 -11 -17 -53 -38 -92 -58 -110 -88 -201 -73 -225 6 -10 13
-11 34 -1 15 7 30 9 33 6 11 -11 -5 -39 -26 -44 -11 -3 -20 -14 -20 -24 0 -12
-10 -23 -25 -29 -13 -5 -27 -20 -31 -34 -3 -14 -16 -32 -29 -40 -15 -10 -30
-37 -41 -73 -10 -32 -23 -65 -29 -73 -17 -21 -36 -82 -29 -89 3 -3 14 5 25 18
10 13 19 19 19 15 0 -5 8 3 17 16 20 30 40 43 73 50 18 4 26 13 28 33 3 21 9
27 26 27 13 0 35 11 50 25 20 19 38 25 72 25 43 0 44 0 44 -34 0 -27 -9 -43
-47 -80 -26 -25 -60 -51 -75 -57 -15 -6 -28 -16 -28 -22 0 -14 -81 -88 -119
-109 -20 -11 -31 -25 -31 -39 0 -11 -15 -42 -32 -68 l-33 -46 2 -169 c2 -131
6 -172 17 -185 8 -9 24 -42 36 -73 12 -32 26 -60 31 -64 5 -3 22 -29 37 -57
26 -50 27 -58 27 -206 0 -148 -1 -154 -22 -169 -13 -8 -23 -23 -23 -34 0 -10
-9 -36 -20 -58 -28 -54 -28 -150 -1 -157 11 -3 22 -14 24 -25 5 -17 11 -20 36
-15 27 6 31 4 31 -16 -1 -12 -9 -38 -20 -57 -10 -19 -29 -54 -41 -78 -12 -23
-25 -45 -30 -48 -5 -3 -16 -20 -24 -37 -8 -18 -29 -54 -47 -82 -30 -47 -32
-57 -40 -190 -5 -76 -7 -196 -6 -265 3 -118 4 -125 24 -128 14 -2 45 20 100
73 53 50 95 81 127 92 26 10 47 23 47 29 0 6 17 16 39 22 81 25 101 10 59 -44
-37 -46 -64 -84 -114 -159 -26 -38 -57 -81 -70 -95 -12 -14 -30 -45 -40 -70
-9 -25 -23 -52 -29 -60 -17 -20 -24 -58 -34 -175 -5 -58 -20 -136 -35 -185
-15 -47 -47 -147 -72 -223 -47 -149 -51 -166 -31 -168 58 -5 143 31 206 90 24
23 50 41 57 41 8 0 17 12 20 28 4 15 21 45 38 67 17 22 44 66 60 98 16 31 32
57 37 57 5 0 9 8 9 18 0 11 9 27 20 37 11 10 20 26 20 36 0 10 9 23 20 29 11
6 20 19 20 29 0 10 7 24 15 31 8 7 15 16 15 21 0 8 40 72 59 95 5 6 11 19 12
29 5 25 57 45 88 34 22 -9 23 -13 18 -60 -4 -28 -10 -56 -16 -63 -35 -44 -62
-211 -66 -416 -3 -217 -32 -379 -75 -425 -13 -13 -20 -35 -20 -58 0 -35 -15
-62 -53 -96 -54 -48 -89 -89 -99 -118 -7 -18 -20 -35 -29 -38 -9 -3 -20 -12
-23 -20 -3 -8 -29 -25 -58 -38 -89 -41 -102 -77 -28 -77 62 0 136 19 155 40
10 11 21 17 26 15 4 -3 10 -1 14 5 3 5 16 10 29 10 13 0 31 12 44 29 12 16 34
32 50 36 17 3 34 16 40 30 6 13 23 26 41 30 18 4 33 15 38 29 15 43 68 93 106
100 21 4 38 2 42 -4 7 -11 -18 -125 -40 -180 -17 -44 -31 -105 -45 -195 -6
-38 -18 -80 -26 -92 -8 -12 -20 -48 -28 -80 -21 -88 -44 -145 -64 -159 -10 -7
-24 -32 -32 -56 -7 -24 -19 -50 -25 -58 -6 -8 -19 -35 -29 -60 -37 -94 -97
-211 -111 -216 -10 -4 -12 -12 -5 -29 8 -20 5 -23 -21 -27 -27 -4 -29 -2 -31
31 -1 20 -2 45 -2 55 -1 11 -7 21 -14 24 -6 2 -12 10 -12 18 0 8 -4 14 -10 14
-5 0 -10 -11 -10 -25 0 -14 5 -25 10 -25 6 0 10 -13 10 -30 0 -20 -5 -30 -15
-30 -17 0 -20 -26 -4 -36 6 -3 15 -1 19 6 5 8 9 3 12 -14 3 -14 1 -26 -3 -26
-16 0 -9 -38 7 -44 10 -4 25 3 40 19 13 14 37 28 53 31 20 4 31 14 35 30 5 17
16 25 40 30 19 3 37 12 40 20 3 8 18 14 33 14 29 1 63 20 63 36 0 5 8 14 18
21 10 6 34 36 52 67 19 31 42 58 52 62 9 3 20 15 23 27 8 25 67 147 94 193 10
17 22 46 26 65 8 42 43 154 60 194 13 29 25 66 60 192 10 35 22 63 27 63 4 0
8 7 8 15 0 8 9 24 20 35 11 11 20 26 20 34 0 8 5 18 10 21 6 4 17 23 26 43 8
20 32 53 53 72 20 19 40 43 44 53 4 10 23 25 42 33 19 8 35 20 35 27 0 17 79
97 96 97 8 0 19 9 26 21 7 11 28 27 46 34 17 8 32 21 32 29 0 9 15 19 38 26
43 12 53 18 68 44 5 11 19 20 30 21 111 9 178 70 129 118 -8 8 -16 21 -17 28
-4 20 -43 49 -67 49 -11 0 -27 10 -35 21 -8 12 -28 30 -45 40 -17 10 -31 25
-31 33 0 7 -18 32 -40 55 -22 22 -40 44 -40 47 0 3 -9 17 -20 31 -11 14 -20
33 -20 41 0 9 -9 34 -19 56 -11 23 -24 65 -30 95 -7 30 -16 60 -21 66 -11 14
-38 177 -50 305 -15 154 -30 194 -81 205 -16 4 -31 11 -34 16 -4 5 -17 9 -30
9 -17 0 -26 8 -33 29 -6 16 -20 34 -31 41 -24 12 -55 69 -65 117 -4 18 -16 50
-27 72 -10 22 -19 53 -19 68 0 15 -7 64 -15 108 -8 47 -15 150 -15 250 -1 94
-5 190 -8 215 l-7 45 -21 -23 c-15 -17 -21 -37 -23 -78 -1 -31 -5 -64 -10 -73
-14 -28 -30 -199 -36 -396 -4 -104 -8 -191 -10 -193 -2 -2 -12 -1 -23 2 -38
12 -119 306 -134 486 -15 181 -21 431 -10 454 21 46 32 78 32 93 0 9 6 24 13
32 19 23 41 97 32 111 -4 6 3 31 15 55 29 57 23 72 -28 67 -39 -4 -40 -5 -47
-48 -3 -24 -10 -44 -14 -44 -5 0 -20 -18 -35 -40 -43 -65 -86 -50 -86 30 0 25
4 50 9 56 8 8 25 86 38 172 3 17 9 32 13 32 4 0 10 12 13 28 3 15 17 44 31 65
14 21 26 45 26 53 0 8 7 17 15 20 8 3 19 23 25 44 12 44 45 90 66 90 8 0 14 7
14 15 0 8 11 25 25 37 14 12 25 30 25 41 0 11 11 30 25 43 31 29 35 84 7 84
-11 0 -27 -9 -37 -20 -10 -11 -23 -20 -30 -20 -7 0 -22 -9 -35 -20 -13 -11
-34 -20 -47 -20 -37 0 -31 55 17 151 22 45 40 88 40 96 0 8 13 28 30 46 16 18
30 39 30 48 0 20 17 34 52 43 23 5 28 14 38 61 8 37 16 55 27 55 8 0 20 13 26
29 6 16 21 34 34 40 13 6 28 22 35 36 6 13 19 27 29 30 11 4 22 18 25 33 3 15
8 35 11 45 2 9 1 26 -2 37 -6 19 -15 20 -145 20 -142 0 -190 -9 -190 -34 0 -8
-17 -20 -37 -26 -21 -7 -47 -20 -58 -30 -37 -34 -86 -47 -124 -35 l-33 12 27
21 c15 12 31 22 36 22 4 0 24 11 43 24 19 13 55 27 80 30 32 5 45 12 49 26 3
11 17 24 32 30 31 12 133 57 157 70 9 5 39 12 67 16 37 5 58 15 83 38 18 18
56 50 83 72 28 21 52 43 53 47 2 4 14 20 27 35 57 69 56 296 -2 402 -16 28
-35 64 -45 81 -21 40 -109 125 -138 134 -13 4 -31 16 -39 25 -28 32 -157 47
-276 34z"/>
<path d="M692 7443 c3 -46 20 -68 31 -39 10 25 -4 86 -20 86 -11 0 -13 -12
-11 -47z"/>
<path d="M4544 7375 c-4 -9 6 -39 21 -68 19 -36 29 -73 32 -118 5 -62 4 -68
-18 -82 -13 -8 -66 -20 -116 -25 -83 -8 -123 -22 -123 -41 0 -10 77 -31 117
-31 70 0 112 -19 169 -75 30 -30 54 -60 54 -68 0 -16 82 -142 115 -177 13 -14
25 -38 27 -53 6 -53 23 -21 22 43 -2 249 -52 461 -124 520 -10 8 -25 30 -34
47 -20 40 -69 97 -107 124 -26 18 -30 19 -35 4z"/>
<path d="M617 7353 c-12 -11 -8 -23 7 -23 8 0 16 -5 18 -12 3 -8 9 -8 22 -1
17 10 17 11 -5 27 -26 18 -32 19 -42 9z"/>
<path d="M5690 7332 c-19 -11 -37 -29 -40 -40 -3 -11 -15 -32 -27 -46 -14 -16
-23 -39 -23 -59 0 -18 -7 -43 -16 -55 -8 -12 -26 -54 -40 -94 -13 -39 -31 -82
-39 -94 -8 -13 -15 -34 -15 -47 0 -14 -8 -42 -17 -63 -13 -29 -17 -66 -16
-146 1 -134 12 -158 37 -86 11 29 25 60 32 69 8 8 31 58 53 109 35 85 43 96
71 103 18 4 34 17 39 30 5 13 16 29 25 36 9 7 16 19 16 25 1 21 55 73 83 80
30 7 52 46 33 58 -6 4 -24 8 -40 8 -42 0 -96 22 -96 38 0 7 5 22 10 33 6 11
10 51 8 89 l-3 70 -35 -18z"/>
<path d="M600 7301 c-18 -35 -12 -60 16 -67 38 -10 47 6 29 49 -17 41 -29 46
-45 18z"/>
<path d="M311 7156 c-8 -10 -9 -16 -1 -21 5 -3 10 1 10 9 0 10 6 13 15 10 8
-4 15 -1 15 5 0 16 -25 14 -39 -3z"/>
<path d="M360 7115 c0 -14 4 -25 9 -25 4 0 6 11 3 25 -2 14 -6 25 -8 25 -2 0
-4 -11 -4 -25z"/>
<path d="M240 7110 c0 -5 6 -10 14 -10 8 0 18 5 21 10 3 6 -3 10 -14 10 -12 0
-21 -4 -21 -10z"/>
<path d="M242 7040 c0 -19 2 -27 5 -17 2 9 2 25 0 35 -3 9 -5 1 -5 -18z"/>
<path d="M537 6984 c-8 -8 1 -24 14 -24 5 0 9 7 9 15 0 15 -12 20 -23 9z"/>
<path d="M525 6898 c-4 -10 -4 -26 0 -35 8 -17 8 -17 12 0 3 9 3 25 0 35 -4
16 -4 16 -12 0z"/>
<path d="M377 6873 c-12 -11 -8 -23 8 -23 8 0 15 -7 15 -15 0 -17 18 -19 39
-6 12 8 11 13 -10 30 -25 21 -41 26 -52 14z"/>
<path d="M6539 6788 c-10 -4 -19 -14 -19 -23 0 -8 -9 -15 -19 -15 -11 0 -22
-4 -25 -9 -3 -5 -26 -6 -50 -4 -24 3 -66 1 -93 -5 -26 -6 -65 -14 -86 -17 -28
-5 -37 -10 -33 -21 4 -10 -2 -14 -18 -14 -14 0 -32 -3 -41 -6 -13 -5 -14 -8
-3 -15 10 -7 10 -9 1 -9 -7 0 -13 -7 -13 -15 0 -18 -12 -19 -28 -3 -10 10 -16
7 -28 -10 -8 -12 -22 -22 -30 -22 -8 0 -14 -4 -14 -10 0 -5 -9 -10 -19 -10
-11 0 -23 -5 -27 -12 -4 -7 -3 -8 4 -4 7 4 12 2 12 -3 0 -6 -8 -11 -17 -11
-10 0 -29 -16 -43 -36 -14 -19 -33 -44 -42 -56 -23 -27 -23 -38 1 -38 11 0 23
-5 27 -11 4 -6 24 -9 50 -5 24 2 46 1 49 -5 4 -5 11 -9 16 -9 6 0 7 5 4 10 -5
9 15 15 38 11 10 -2 77 144 77 168 0 27 19 39 70 42 l45 4 -1 -60 c0 -40 -7
-70 -18 -87 -10 -15 -15 -32 -12 -37 4 -6 -3 -15 -14 -21 -11 -6 -20 -16 -20
-24 0 -7 -16 -31 -35 -53 -40 -47 -41 -50 -20 -50 8 0 15 4 15 10 0 5 9 20 19
33 l19 24 -6 -42 c-5 -41 -4 -42 12 -25 10 9 21 17 26 17 11 0 52 79 45 90 -3
4 3 7 13 6 12 -1 26 18 47 61 17 34 36 68 43 75 6 6 12 22 12 34 0 13 4 25 9
28 5 4 12 25 16 47 4 23 16 50 27 61 l20 20 38 -41 c34 -37 37 -44 29 -74 -27
-102 -37 -128 -52 -139 -11 -8 -20 -33 -24 -67 -5 -45 -11 -56 -34 -70 -16 -9
-29 -24 -29 -34 0 -10 4 -15 10 -12 6 3 7 -1 4 -9 -3 -9 -12 -16 -19 -16 -7 0
-18 -12 -25 -27 -20 -48 -34 -73 -43 -73 -4 0 -5 5 -2 10 3 6 0 10 -8 10 -12
0 -13 -4 -4 -24 14 -29 30 -25 77 22 19 19 45 38 57 43 12 4 25 20 29 33 3 14
13 28 22 31 37 13 60 70 67 167 6 95 22 168 36 168 4 0 10 9 14 19 3 11 14 23
24 26 11 3 31 17 45 30 15 14 38 25 51 25 13 0 30 3 39 6 18 7 21 39 5 50 -15
9 -226 11 -250 2z m-289 -463 c0 -5 -5 -3 -10 5 -5 8 -10 20 -10 25 0 6 5 3
10 -5 5 -8 10 -19 10 -25z m127 -147 c-3 -8 -6 -5 -6 6 -1 11 2 17 5 13 3 -3
4 -12 1 -19z"/>
<path d="M3450 6755 c-7 -9 -29 -15 -51 -15 -35 0 -40 -4 -64 -48 -14 -27 -39
-56 -56 -66 -24 -14 -29 -24 -29 -57 0 -22 -9 -68 -21 -102 -23 -66 -23 -70 2
-302 6 -60 11 -118 11 -127 -1 -27 22 -21 46 12 12 16 22 32 22 35 0 3 9 14
20 25 11 11 20 29 20 39 0 23 15 29 55 22 24 -5 31 -13 37 -41 11 -52 -1 -139
-28 -190 -13 -25 -28 -65 -34 -90 -6 -25 -14 -56 -17 -68 -6 -23 10 -92 28
-122 5 -8 20 -38 34 -66 14 -30 34 -54 45 -57 12 -3 20 -14 20 -26 0 -12 6
-24 14 -27 8 -3 17 -16 20 -29 3 -13 12 -30 19 -37 37 -39 67 -99 73 -143 4
-28 11 -52 15 -55 12 -8 30 -177 32 -302 2 -93 5 -116 20 -130 9 -10 17 -27
17 -38 0 -10 8 -27 19 -37 10 -10 22 -29 25 -43 7 -25 28 -80 52 -135 7 -16
16 -43 20 -60 3 -16 20 -54 35 -83 16 -29 29 -61 29 -71 0 -28 41 -124 60
-142 10 -9 21 -38 25 -70 4 -30 15 -72 25 -94 14 -29 22 -81 29 -196 6 -94 16
-170 26 -192 8 -20 15 -49 15 -64 0 -48 19 -99 48 -129 48 -51 71 -98 79 -165
9 -72 8 -263 -2 -355 -5 -48 -3 -63 9 -73 9 -8 16 -23 16 -35 0 -32 37 -104
60 -118 14 -9 20 -24 20 -51 0 -65 4 -66 490 -63 532 3 597 1 605 -25 7 -22
35 -26 35 -5 0 11 22 16 88 21 48 4 112 10 142 14 l55 6 32 68 c18 37 37 67
43 67 5 0 10 9 10 19 0 11 4 21 8 23 4 2 20 19 35 39 30 40 70 54 88 33 7 -9
8 -32 4 -64 -6 -46 -9 -50 -35 -50 -35 0 -40 -13 -40 -108 0 -108 -9 -150 -31
-157 -11 -4 -19 -13 -19 -22 0 -8 -8 -26 -19 -39 l-19 -24 -9 28 c-6 15 -14
40 -19 56 -5 16 -13 30 -18 30 -15 1 -55 -86 -56 -119 0 -17 -7 -41 -16 -53
-8 -12 -13 -31 -9 -41 4 -13 -5 -30 -28 -55 -19 -20 -39 -36 -44 -36 -6 0 -16
-7 -23 -16 -8 -8 -25 -14 -39 -12 -21 2 -27 9 -29 35 -4 39 -18 42 -34 8 -7
-15 -19 -25 -33 -25 -11 0 -50 -24 -86 -53 -77 -63 -157 -103 -222 -113 -35
-5 -52 -13 -64 -31 -20 -30 -57 -28 -61 3 -2 14 14 40 46 75 27 30 53 69 56
87 7 29 5 32 -16 32 -48 0 -98 -20 -98 -40 0 -15 -10 -20 -56 -26 -38 -4 -59
-12 -67 -25 -7 -11 -17 -19 -24 -19 -16 0 -8 48 17 107 20 46 18 53 -16 53
-35 0 -54 -10 -54 -29 0 -12 -14 -21 -49 -30 -34 -9 -51 -18 -54 -32 -3 -11
-14 -23 -25 -26 -11 -3 -22 -13 -25 -24 -4 -14 -14 -19 -40 -19 -45 0 -55 29
-21 61 45 42 24 54 -24 14 -20 -17 -42 -25 -66 -25 l-36 0 6 38 c5 33 3 39
-24 55 -38 22 -42 21 -42 -2 0 -28 -24 -43 -67 -39 -42 3 -40 -6 -27 110 4 31
4 72 0 92 -7 34 -9 36 -45 36 -38 0 -40 -2 -70 -65 -26 -54 -36 -65 -57 -65
-36 0 -40 22 -21 135 10 55 17 113 17 128 0 16 4 26 10 22 10 -6 46 42 37 51
-12 13 -53 -29 -84 -84 -34 -62 -78 -95 -94 -71 -10 16 -2 62 12 67 5 2 9 13
9 24 0 12 12 37 27 57 22 28 28 49 31 100 3 46 11 74 26 94 17 24 22 46 24
129 l4 100 -65 63 c-66 65 -68 66 -178 80 -62 8 -84 24 -75 58 6 24 11 27 54
27 44 1 46 2 27 16 -11 8 -26 12 -33 9 -8 -3 -23 2 -35 10 -12 8 -35 15 -52
15 -35 0 -75 24 -75 45 0 24 58 57 100 57 22 0 42 3 45 9 4 5 -4 9 -16 9 -12
0 -41 11 -64 25 -37 21 -54 24 -160 26 -64 1 -120 -3 -124 -8 -3 -5 -34 -28
-69 -51 -57 -37 -68 -50 -108 -128 -40 -79 -44 -92 -44 -159 0 -41 4 -76 9
-79 5 -3 12 -21 15 -39 12 -63 100 -154 176 -181 29 -11 52 -25 55 -37 4 -10
10 -19 15 -19 15 0 105 -87 120 -116 8 -16 34 -56 57 -89 24 -32 43 -67 43
-76 0 -9 7 -33 15 -53 21 -50 33 -451 15 -516 -7 -25 -14 -63 -17 -85 -3 -22
-9 -44 -14 -50 -5 -5 -9 -23 -9 -40 0 -21 -8 -39 -25 -53 -13 -12 -27 -33 -31
-47 -3 -14 -10 -25 -15 -25 -5 0 -9 -5 -9 -10 0 -6 -34 -45 -75 -88 -55 -57
-75 -84 -75 -104 0 -21 -7 -29 -32 -38 -35 -11 -74 -55 -59 -65 5 -3 23 3 39
12 16 10 55 33 87 52 31 19 82 58 112 88 30 29 63 53 74 53 10 0 26 11 35 25
12 18 25 25 48 25 18 0 59 5 90 12 70 14 76 8 76 -76 0 -45 -5 -65 -19 -80
-10 -12 -26 -46 -36 -76 -18 -55 -59 -125 -89 -149 -9 -8 -16 -24 -16 -37 0
-12 -4 -26 -10 -29 -5 -3 -10 -31 -10 -61 l0 -54 67 0 c54 0 75 5 112 27 25
15 53 33 61 41 18 18 89 51 110 52 9 0 37 18 64 40 26 22 52 40 57 40 5 0 9 6
9 13 0 14 40 37 65 37 9 0 15 10 15 25 0 30 30 62 76 81 19 8 34 18 34 23 0
21 33 41 66 41 28 0 36 5 44 25 7 18 21 28 55 36 26 6 50 20 56 30 7 14 21 19
48 19 42 0 84 12 148 42 23 10 73 22 112 25 54 4 78 12 97 28 30 26 102 41
117 26 14 -14 -20 -77 -55 -104 -16 -11 -28 -26 -28 -33 0 -6 -11 -19 -25 -28
-14 -9 -25 -22 -25 -29 0 -7 -18 -20 -40 -30 -22 -9 -40 -24 -40 -32 0 -9 -13
-21 -30 -26 -16 -6 -32 -18 -35 -27 -3 -10 -23 -30 -45 -45 -22 -16 -45 -38
-51 -49 -10 -19 -9 -20 12 -15 13 3 44 9 69 13 55 8 80 20 80 38 0 7 15 16 33
19 18 3 54 19 79 36 30 20 58 31 82 31 31 0 36 3 36 24 0 20 6 24 41 30 29 5
43 12 46 26 3 11 14 20 24 20 31 0 66 21 78 46 5 13 23 26 38 30 15 4 43 20
61 36 18 15 37 28 41 28 5 0 11 8 13 18 4 13 21 23 53 31 32 8 49 18 52 31 3
10 16 26 29 35 13 8 24 21 24 29 0 7 15 17 33 22 21 7 33 17 35 31 2 14 13 23
34 27 38 8 58 23 58 45 0 21 63 91 81 91 13 0 32 25 67 86 7 13 21 26 32 29
11 4 20 15 20 27 0 11 8 22 18 24 17 5 67 79 67 99 0 11 41 35 61 35 8 0 15
18 19 48 14 111 18 123 36 135 17 11 19 25 19 174 0 162 0 163 -25 179 -14 9
-25 24 -25 33 0 9 -9 22 -20 29 -11 7 -20 21 -20 31 0 13 -8 21 -22 23 -12 2
-27 13 -34 25 -6 12 -22 32 -37 43 -32 25 -48 74 -49 145 0 30 -5 55 -9 55 -5
0 -9 10 -9 23 -1 22 -1 22 -15 -3 -8 -14 -15 -34 -16 -45 -1 -17 -2 -16 -9 5
-12 40 -19 6 -22 -100 l-3 -95 -32 -3 c-28 -3 -33 -7 -33 -30 l-1 -27 -15 28
c-9 16 -15 52 -15 81 0 56 46 252 65 275 8 11 8 15 -1 18 -7 3 -13 9 -13 15 0
6 6 6 15 -2 12 -10 16 -8 24 13 5 14 16 27 23 30 10 4 10 6 1 6 -7 1 -13 5
-13 11 0 5 10 9 22 7 20 -2 24 5 34 60 6 34 16 68 22 76 12 14 22 84 29 197 5
80 15 95 47 77 12 -6 24 -10 29 -9 4 1 7 -108 7 -243 -1 -206 -4 -247 -17
-260 -8 -9 -13 -22 -10 -29 3 -7 0 -19 -6 -25 -8 -8 -7 -11 4 -11 7 0 24 16
37 35 12 20 30 35 41 35 14 0 22 10 26 32 4 17 18 51 31 76 13 25 24 52 25 61
0 9 9 30 20 46 29 46 38 70 45 122 3 27 13 65 21 86 14 35 14 39 -2 51 -16 11
-17 19 -7 56 6 24 8 48 6 52 -3 5 -1 15 6 23 13 16 39 9 57 -14 16 -20 15 -23
18 84 1 50 9 117 18 150 8 33 18 95 21 138 5 64 10 82 27 96 17 14 22 32 27
89 2 40 8 75 13 78 4 2 6 11 2 20 -3 9 -9 11 -17 6 -6 -5 -23 -12 -38 -16 -18
-4 -28 -13 -28 -24 0 -10 -11 -29 -25 -42 -14 -13 -25 -29 -25 -35 0 -6 -11
-21 -24 -32 l-24 -21 -6 21 c-9 34 -7 67 4 67 12 0 30 43 35 79 1 13 10 28 19
33 9 5 16 16 16 24 0 8 -4 12 -10 9 -6 -3 -10 0 -10 7 0 7 10 18 22 23 41 18
49 50 45 180 -4 120 -21 209 -44 233 -7 7 -13 16 -13 19 0 15 39 32 71 33 35
0 57 20 44 40 -3 4 2 13 10 20 8 7 15 21 15 31 0 10 5 21 10 24 6 3 10 14 9
23 0 14 -2 14 -8 -2 -7 -17 -8 -18 -14 -3 -3 9 -2 19 3 22 6 4 10 15 10 26 0
10 5 18 11 17 13 -4 26 17 34 55 3 15 14 36 24 46 22 22 111 166 111 180 0 6
9 16 21 25 23 16 68 101 69 129 0 10 10 31 22 47 18 24 21 42 20 97 -1 39 -8
76 -17 89 -10 16 -15 50 -15 108 0 79 2 86 26 105 15 12 37 21 49 21 18 0 24
-9 34 -57 16 -71 23 -87 44 -91 10 -2 18 5 21 20 2 13 11 61 20 107 8 46 20
87 26 91 7 4 6 16 -4 36 -8 16 -18 60 -22 99 -8 79 -56 225 -79 238 -8 4 -15
14 -15 22 0 16 -47 55 -66 55 -28 0 -42 -31 -48 -107 -16 -198 -15 -194 -57
-234 -31 -30 -39 -46 -45 -87 -3 -28 -12 -53 -19 -56 -8 -3 -21 -20 -30 -39
-13 -27 -15 -61 -13 -175 2 -103 0 -144 -9 -153 -7 -7 -13 -23 -13 -35 0 -12
-6 -27 -14 -33 -7 -6 -21 -36 -30 -66 -12 -36 -24 -56 -38 -60 -12 -4 -17 -12
-14 -22 4 -11 1 -13 -14 -8 -12 4 -20 2 -20 -6 0 -17 -31 -38 -60 -40 -18 -1
-20 -3 -7 -6 16 -4 15 -7 -7 -24 -13 -10 -33 -18 -43 -17 -40 3 -78 -2 -66
-10 10 -6 9 -13 -3 -31 -13 -18 -18 -20 -25 -10 -7 11 -9 9 -10 -6 l0 -20 -9
20 c-10 23 -13 5 -4 -19 3 -9 11 -13 17 -9 6 4 8 -3 4 -19 -5 -18 -2 -28 8
-32 17 -6 21 -36 5 -36 -5 0 -10 8 -10 18 0 14 -2 15 -10 2 -5 -9 -5 -19 2
-27 7 -9 7 -17 -1 -27 -9 -11 -9 -19 1 -35 7 -12 16 -21 20 -21 5 0 8 -12 8
-26 0 -21 3 -24 21 -19 19 6 21 4 15 -19 -5 -19 -1 -30 14 -43 23 -20 27 -35
6 -27 -7 3 -16 -2 -20 -11 -3 -9 -2 -14 3 -11 5 3 14 -8 20 -24 19 -57 -19
-213 -73 -294 -18 -28 -33 -62 -32 -76 1 -21 -7 -26 -56 -43 -33 -11 -58 -26
-58 -33 0 -8 5 -14 11 -14 5 0 7 4 4 10 -3 5 0 7 8 4 8 -3 19 2 26 10 7 8 19
12 27 9 17 -6 70 41 84 75 7 16 18 22 39 22 27 0 47 -22 37 -39 -3 -4 -6 -28
-7 -54 -2 -26 -6 -47 -11 -47 -4 0 -8 -7 -8 -15 0 -8 -5 -15 -11 -15 -6 0 -8
-7 -5 -16 3 -8 2 -12 -4 -9 -9 6 -11 -3 -14 -65 -1 -14 -6 -24 -13 -23 -7 2
-13 -3 -13 -11 0 -7 -7 -19 -15 -26 -8 -7 -15 -23 -15 -36 0 -15 -6 -24 -15
-24 -9 0 -20 -12 -25 -27 -29 -80 -51 -104 -107 -114 -46 -9 -88 -42 -77 -61
3 -4 0 -8 -5 -8 -6 0 -11 5 -11 10 0 6 -8 10 -17 10 -13 0 -14 -3 -6 -11 21
-21 -7 -139 -32 -139 -7 0 -15 -7 -19 -15 -3 -8 -25 -23 -48 -32 l-43 -18 30
-6 c26 -6 27 -7 6 -8 -14 0 -40 -6 -58 -13 -29 -11 -35 -19 -32 -44 0 -4 -5
-11 -13 -15 -9 -6 -9 -9 -1 -9 7 0 17 8 22 18 6 10 11 12 11 4 0 -7 5 -10 11
-7 6 4 8 14 4 24 -4 11 -3 13 5 5 21 -21 24 -83 5 -104 -10 -12 -13 -20 -7
-20 7 0 12 -13 12 -30 0 -22 -4 -28 -15 -24 -12 5 -15 -3 -15 -39 0 -34 -6
-53 -25 -75 -14 -17 -25 -37 -25 -46 0 -8 -11 -18 -25 -22 -14 -3 -25 -12 -25
-20 0 -31 -52 -105 -68 -96 -6 4 -13 48 -17 97 -4 50 -8 110 -10 135 -2 25 -8
58 -14 73 -12 31 1 69 22 66 7 -1 25 1 40 6 23 6 27 12 23 29 -3 12 1 34 9 49
l14 27 -132 0 -133 0 -25 29 c-18 21 -38 30 -74 35 -63 10 -97 38 -90 76 3 17
-1 32 -10 40 -10 8 -15 31 -15 66 0 36 -4 54 -12 54 -7 0 -1 8 15 18 15 9 27
22 27 29 0 7 7 10 15 7 9 -4 15 0 15 10 0 10 15 19 43 26 59 16 65 18 39 19
-14 1 -21 5 -16 12 3 6 15 9 25 6 11 -3 19 -1 19 4 0 5 6 9 13 9 8 0 19 11 27
24 9 18 19 23 36 20 12 -2 26 0 29 6 3 5 -2 10 -12 10 -16 1 -15 3 6 20 13 11
30 20 38 20 10 0 13 6 8 18 -5 14 -4 15 6 5 19 -19 39 -16 39 6 0 11 9 23 20
26 11 3 20 12 20 19 0 7 11 18 25 24 14 6 26 15 26 19 6 36 5 53 -5 53 -6 0
-5 4 3 9 8 5 9 11 3 15 -6 3 -13 2 -17 -4 -10 -16 -28 -12 -22 5 8 19 -11 31
-26 16 -6 -6 -22 -11 -36 -11 -26 1 -26 1 4 15 l30 13 -27 1 c-14 1 -34 -2
-43 -5 -13 -6 -14 -9 -3 -16 8 -6 -1 -7 -27 -3 -22 4 -73 7 -114 6 -64 -2 -76
-5 -92 -25 -10 -13 -35 -27 -55 -30 -53 -10 -82 -26 -87 -48 -5 -18 -13 -20
-100 -16 -88 3 -97 5 -122 31 -15 15 -36 27 -46 27 -11 0 -36 15 -56 33 -21
19 -53 37 -71 40 -18 4 -45 16 -61 28 -16 12 -34 18 -40 15 -6 -4 -11 -3 -11
2 0 11 -125 36 -145 28 -9 -3 -23 3 -32 14 -10 11 -32 25 -49 30 -20 7 -31 17
-30 28 1 12 -8 18 -26 20 -15 2 -35 13 -43 25 -22 31 -38 11 -25 -33 6 -19 10
-47 10 -62 0 -18 8 -33 25 -44 14 -9 25 -22 25 -30 0 -16 39 -84 49 -84 4 0
15 -16 24 -35 9 -20 25 -39 34 -42 10 -4 39 -28 64 -54 46 -48 170 -139 189
-139 6 0 10 -6 10 -14 0 -7 15 -21 33 -29 18 -9 41 -25 51 -36 9 -10 31 -25
47 -31 18 -8 29 -20 30 -34 1 -19 2 -19 10 4 6 17 6 9 2 -25 -3 -27 -7 -78 -7
-113 -1 -65 -17 -92 -54 -92 -7 0 -47 -13 -87 -29 -71 -29 -79 -30 -264 -32
-184 -3 -192 -2 -218 19 -16 12 -44 30 -63 41 -48 26 -120 90 -120 107 0 17
-29 30 -82 39 -29 4 -38 11 -38 25 0 26 8 25 67 -4 65 -33 192 -46 212 -22 12
14 11 19 -4 36 -13 15 -31 20 -67 20 -41 0 -50 3 -59 24 -9 19 -21 24 -68 29
-42 5 -61 12 -76 29 -11 13 -32 29 -47 36 -16 6 -28 20 -28 29 -1 10 -15 27
-33 38 -22 14 -37 35 -48 67 -8 26 -23 56 -32 65 -9 10 -22 51 -28 92 -7 40
-18 79 -26 86 -20 20 -16 34 13 41 27 7 74 -12 74 -30 0 -14 91 -96 107 -96 7
0 13 -9 13 -19 0 -11 15 -28 35 -40 19 -11 35 -25 35 -30 0 -6 20 -19 45 -30
25 -11 45 -24 45 -29 0 -4 26 -19 58 -32 31 -13 81 -34 110 -47 30 -14 56 -22
58 -20 3 3 26 -2 51 -9 25 -8 64 -14 87 -14 37 0 39 1 25 16 -9 8 -35 18 -58
20 -23 3 -57 14 -74 24 -18 11 -38 20 -45 20 -13 0 -52 25 -105 68 -16 12 -35
22 -43 22 -17 0 -88 67 -97 91 -3 9 -26 21 -51 28 -28 7 -46 17 -46 25 0 8 -8
17 -18 20 -32 11 -182 198 -182 228 0 5 -13 29 -30 53 -35 51 -38 84 -10 108
11 9 20 28 20 41 0 14 10 32 22 41 20 13 24 13 34 1 5 -8 22 -18 37 -21 15 -4
27 -14 27 -22 0 -8 13 -26 29 -41 16 -15 41 -49 55 -77 14 -27 49 -73 78 -101
59 -57 150 -124 167 -124 17 0 13 20 -6 27 -32 12 -134 126 -140 156 -4 17
-14 32 -24 34 -18 5 -40 44 -74 133 -10 25 -22 55 -28 67 -5 12 -7 44 -4 71 4
37 14 57 42 87 l36 40 89 3 c79 4 93 1 120 -18 17 -12 49 -24 70 -27 58 -8 52
17 -12 61 -73 49 -83 58 -96 82 -8 16 -25 23 -61 28 -31 4 -51 12 -55 22 -9
24 0 31 51 38 27 4 68 14 93 22 41 13 50 12 99 -5 29 -10 65 -32 81 -50 16
-17 35 -31 43 -31 8 0 22 -9 33 -21 10 -12 31 -27 46 -35 16 -8 28 -21 28 -30
0 -8 15 -21 33 -29 19 -8 39 -21 47 -29 14 -18 46 -21 55 -5 4 5 0 18 -9 28
-9 10 -16 25 -16 34 0 9 -10 22 -22 28 -33 18 -88 71 -88 86 0 15 -41 103 -55
119 -5 7 -23 29 -40 50 -51 64 -64 74 -96 74 -53 0 -159 -23 -159 -34 0 -14
-47 -36 -77 -36 -13 0 -34 -10 -47 -22 -29 -29 -62 -48 -80 -48 -8 0 -27 -11
-43 -24 -23 -19 -44 -24 -116 -29 -92 -6 -117 -3 -117 17 0 6 -12 23 -27 37
-41 38 -73 82 -73 100 0 9 -12 21 -26 28 l-26 12 6 117 c11 190 11 203 -14
285 -16 56 -30 83 -47 94 -13 9 -42 55 -65 102 -23 47 -47 93 -54 101 -20 24
-21 110 -2 124 9 7 18 28 20 47 3 30 6 34 28 31 42 -5 80 -26 80 -45 0 -11 13
-24 35 -33 35 -14 55 -45 55 -85 0 -11 10 -33 22 -49 16 -22 23 -50 27 -109 4
-55 12 -85 24 -98 9 -11 17 -30 17 -42 0 -39 18 -61 50 -61 20 0 35 -8 47 -26
10 -14 26 -33 36 -42 9 -9 17 -24 17 -34 0 -18 28 -38 55 -38 19 0 115 -89
115 -107 0 -7 18 -18 40 -24 22 -7 42 -20 45 -30 7 -23 45 -31 104 -23 54 7
61 11 77 38 6 11 17 23 25 26 8 4 30 15 49 24 24 12 68 20 137 24 l102 5 12
-26 c6 -14 21 -27 33 -29 11 -2 22 -12 25 -22 2 -11 13 -28 26 -38 13 -10 26
-30 29 -45 3 -16 17 -50 31 -78 13 -27 26 -58 29 -67 12 -39 26 -15 26 42 0
49 -3 60 -16 60 -13 0 -15 5 -9 23 16 45 13 106 -4 129 -16 21 -46 107 -53
153 -2 14 -15 22 -43 28 -22 5 -47 13 -55 18 -8 5 -23 12 -32 15 -19 7 -54 73
-64 121 -4 23 -15 36 -35 45 -15 7 -32 23 -38 35 -6 13 -19 23 -31 23 -11 0
-20 5 -20 10 0 6 -14 25 -31 42 -17 18 -38 45 -47 60 -9 15 -31 33 -48 38 -18
6 -34 19 -37 30 -3 12 -20 23 -48 30 -24 7 -51 18 -59 25 -8 7 -33 18 -55 25
-59 19 -103 39 -110 50 -3 6 -24 10 -45 10 -21 0 -42 5 -45 10 -10 16 -104 12
-122 -5 -17 -18 -14 -78 7 -135 7 -19 20 -54 29 -78 9 -23 24 -45 34 -48 9 -3
17 -9 17 -14 0 -4 13 -21 28 -38 15 -16 33 -41 40 -56 6 -14 19 -26 27 -26 8
0 21 -11 27 -25 6 -14 15 -25 20 -25 4 0 17 -9 27 -19 11 -11 34 -27 52 -37
18 -9 44 -29 59 -45 l26 -29 147 -3 c102 -2 151 -7 160 -16 20 -21 -15 -37
-95 -44 -57 -5 -77 -11 -90 -27 -23 -29 -130 -29 -151 0 -7 10 -31 23 -53 28
-21 5 -53 22 -70 38 -17 16 -47 42 -68 58 -21 16 -44 44 -52 62 -10 25 -21 34
-37 34 -15 0 -26 9 -34 28 -7 15 -22 39 -33 53 -19 23 -27 45 -47 127 -3 13
-16 34 -29 47 -26 26 -39 95 -30 161 5 42 3 48 -26 75 -31 28 -36 29 -129 29
-74 0 -100 -4 -109 -15z m525 -149 c33 -12 42 -21 53 -55 8 -23 18 -41 23 -41
5 0 9 -12 9 -27 1 -35 13 -56 70 -121 44 -50 47 -52 98 -52 57 0 89 12 110 42
22 31 56 23 80 -21 47 -83 19 -114 -104 -120 -78 -3 -87 -1 -129 25 -26 17
-45 37 -45 47 0 18 -5 21 -51 31 -18 4 -42 30 -82 90 -32 46 -57 88 -57 92 0
4 -6 15 -14 23 -14 17 -28 86 -19 95 9 8 12 8 58 -8z m2365 -1241 c0 -8 -4
-15 -10 -15 -5 0 -10 7 -10 15 0 8 5 15 10 15 6 0 10 -7 10 -15z m35 -45 c-3
-5 -10 -10 -16 -10 -5 0 -9 5 -9 10 0 6 7 10 16 10 8 0 12 -4 9 -10z m9 -485
c3 -8 1 -15 -4 -15 -6 0 -10 7 -10 15 0 8 2 15 4 15 2 0 6 -7 10 -15z m-63
-52 c-8 -15 -10 -15 -11 -2 0 17 10 32 18 25 2 -3 -1 -13 -7 -23z m-888 -70
c-7 -2 -21 -2 -30 0 -10 3 -4 5 12 5 17 0 24 -2 18 -5z m893 -260 c-11 -11
-17 4 -9 23 7 18 8 18 11 1 2 -10 1 -21 -2 -24z m-206 -223 c0 -5 -5 -10 -11
-10 -5 0 -7 5 -4 10 3 6 8 10 11 10 2 0 4 -4 4 -10z m64 -144 c-3 -17 -11 -36
-16 -43 -5 -7 -7 -21 -3 -32 3 -10 1 -22 -5 -26 -5 -3 -10 -32 -10 -64 0 -52
-2 -59 -22 -65 -57 -15 -60 -12 -54 62 4 37 7 86 9 110 1 27 6 42 15 42 9 0
11 7 7 19 -3 11 0 23 6 27 9 5 10 2 6 -9 -8 -22 -1 -21 23 3 29 29 53 16 44
-24z m-1818 -176 c23 0 34 -5 34 -15 0 -17 30 -35 60 -35 17 0 19 -4 14 -27
-4 -16 -11 -33 -15 -39 -5 -6 -8 -58 -8 -115 2 -158 2 -159 -20 -159 -12 0
-22 9 -26 23 -10 37 -36 99 -61 149 -13 27 -24 56 -24 66 0 10 -8 27 -18 38
-19 21 -44 103 -35 117 3 5 19 6 35 3 17 -3 46 -6 64 -6z m1192 -48 c20 -3 32
-15 47 -45 18 -38 20 -62 20 -242 -1 -187 -2 -204 -25 -260 -23 -58 -76 -134
-131 -185 -14 -14 -29 -35 -33 -47 -11 -36 -27 -43 -74 -31 -47 12 -92 4 -92
-16 0 -19 -37 -27 -50 -11 -8 9 -35 12 -100 9 -50 -2 -92 1 -95 6 -4 6 -41 10
-85 10 -60 0 -79 -3 -84 -15 -9 -23 -38 -18 -62 12 -20 26 -23 26 -62 15 -22
-7 -47 -10 -55 -7 -8 4 -36 48 -62 98 -27 51 -52 94 -56 97 -23 16 -29 77 -29
294 0 144 4 245 11 265 12 35 50 51 74 31 10 -8 29 -10 57 -5 24 3 80 9 126
11 73 5 83 3 89 -13 9 -24 23 -33 55 -33 29 0 51 -25 62 -70 17 -65 30 -106
39 -117 4 -6 11 -72 14 -145 6 -137 13 -168 38 -168 8 0 15 1 16 3 0 1 4 78 8
170 7 146 10 171 28 195 11 16 26 54 33 85 7 31 16 54 20 52 4 -2 21 9 38 25
18 16 46 31 64 33 41 5 219 5 256 -1z m324 -124 c-7 -7 -12 -8 -12 -2 0 14 12
26 19 19 2 -3 -1 -11 -7 -17z m-1430 -490 c3 -52 4 -53 36 -56 26 -3 32 -7 32
-28 0 -17 6 -24 19 -24 23 0 38 -36 44 -110 3 -30 13 -70 24 -88 18 -32 18
-33 -2 -48 -28 -21 -68 -30 -73 -16 -2 7 -12 12 -23 12 -11 0 -24 10 -30 23
-6 12 -19 38 -30 57 -10 19 -19 45 -19 57 0 12 -4 25 -10 28 -6 3 -10 48 -10
100 0 61 -4 95 -11 97 -22 7 1 48 26 48 22 0 24 -5 27 -52z m1183 -29 c-4 -6
3 -13 15 -16 22 -6 23 -9 17 -96 -5 -69 -10 -94 -25 -111 -11 -11 -17 -27 -15
-34 3 -8 -4 -16 -16 -19 -14 -3 -21 -13 -21 -29 0 -22 -4 -24 -42 -24 -52 0
-60 6 -77 48 -20 49 -8 111 27 142 15 14 33 37 39 51 16 37 72 99 90 99 8 0
11 -5 8 -11z m318 -514 c-3 -9 -8 -14 -10 -11 -3 3 -2 9 2 15 9 16 15 13 8 -4z"/>
<path d="M5170 6695 c-5 -14 -10 -41 -10 -58 0 -18 -7 -54 -15 -80 -8 -26 -19
-76 -25 -110 -14 -80 -28 -115 -51 -128 -11 -5 -19 -19 -19 -30 0 -11 -11 -24
-25 -31 -14 -6 -25 -16 -25 -23 0 -18 -53 -61 -83 -69 -36 -9 -34 -35 3 -49
17 -6 30 -19 30 -28 0 -9 9 -19 20 -22 11 -3 24 -16 29 -29 6 -12 19 -36 30
-53 16 -22 21 -46 21 -92 0 -52 3 -64 20 -73 11 -6 19 -20 19 -33 0 -12 2 -87
5 -167 3 -80 6 -221 7 -315 1 -161 9 -231 22 -195 7 20 15 101 26 280 5 80 17
206 27 280 9 74 16 148 16 163 -1 18 3 25 10 21 7 -5 9 0 6 14 -4 13 0 23 8
26 8 3 14 15 14 26 0 11 7 20 15 20 18 0 20 20 3 21 -7 0 -1 5 14 10 17 7 25
15 21 25 -3 7 2 17 11 20 9 3 16 10 16 16 0 5 14 21 30 35 17 13 30 31 30 39
0 8 7 14 15 14 18 0 20 26 3 33 -7 3 1 6 19 6 17 1 34 -4 36 -9 3 -6 4 -5 3 2
-1 7 -18 14 -37 16 -38 4 -89 46 -89 73 0 9 -7 22 -15 29 -8 7 -15 18 -15 25
0 7 -6 18 -14 24 -8 7 -17 33 -19 59 -15 132 -20 161 -33 206 -8 27 -14 64
-14 82 0 17 -7 37 -15 44 -12 10 -16 8 -25 -15z m7 -922 c-3 -10 -5 -4 -5 12
0 17 2 24 5 18 2 -7 2 -21 0 -30z"/>
<path d="M256 6355 c4 -8 10 -15 14 -15 4 0 10 7 14 15 4 10 -1 15 -14 15 -13
0 -18 -5 -14 -15z"/>
<path d="M256 6275 c4 -8 10 -15 14 -15 4 0 10 7 14 15 4 10 -1 15 -14 15 -13
0 -18 -5 -14 -15z"/>
<path d="M180 6250 c-13 -9 -13 -11 0 -20 26 -17 62 -12 58 8 -4 20 -36 27
-58 12z"/>
<path d="M5730 6206 c0 -2 7 -9 15 -16 13 -11 14 -10 9 4 -5 14 -24 23 -24 12z"/>
<path d="M218 6173 c7 -3 16 -2 19 1 4 3 -2 6 -13 5 -11 0 -14 -3 -6 -6z"/>
<path d="M270 6110 c0 -11 -4 -20 -10 -20 -5 0 -10 -9 -10 -20 0 -16 7 -20 30
-20 23 0 30 4 30 20 0 11 -4 20 -10 20 -5 0 -10 9 -10 20 0 11 -4 20 -10 20
-5 0 -10 -9 -10 -20z"/>
<path d="M5630 6090 c0 -5 5 -10 10 -10 6 0 10 5 10 10 0 6 -4 10 -10 10 -5 0
-10 -4 -10 -10z"/>
<path d="M320 6022 c0 -35 4 -52 15 -56 12 -4 15 3 15 35 0 23 -7 47 -15 55
-13 14 -15 10 -15 -34z"/>
<path d="M5600 6060 c0 -5 4 -10 9 -10 5 0 11 -12 13 -27 l4 -28 11 25 c8 20
7 27 -6 37 -20 15 -31 16 -31 3z"/>
<path d="M5570 6043 c0 -5 4 -15 10 -23 11 -18 25 -7 17 15 -6 15 -27 21 -27
8z"/>
<path d="M5538 5993 c-10 -2 -18 -11 -18 -19 0 -8 -4 -12 -10 -9 -6 4 -10 -11
-9 -37 0 -24 3 -37 6 -30 2 6 11 12 19 12 8 0 14 7 14 15 0 8 5 15 10 15 17 0
11 28 -7 33 -14 4 -12 5 5 6 12 0 22 6 22 11 0 10 -3 11 -32 3z"/>
<path d="M50 5946 c0 -9 7 -16 16 -16 17 0 14 22 -4 28 -7 2 -12 -3 -12 -12z"/>
<path d="M5475 5941 c-3 -5 -1 -12 5 -16 5 -3 10 1 10 9 0 18 -6 21 -15 7z"/>
<path d="M5222 5870 c0 -14 2 -19 5 -12 2 6 2 18 0 25 -3 6 -5 1 -5 -13z"/>
<path d="M8828 5818 c-3 -24 -6 -97 -7 -163 -1 -66 -6 -124 -12 -129 -5 -6 -9
-37 -9 -71 0 -41 -6 -72 -20 -98 -26 -47 -25 -109 0 -162 16 -33 29 -45 60
-55 22 -7 40 -19 40 -27 0 -7 11 -19 25 -25 16 -7 25 -19 25 -34 0 -16 9 -25
33 -33 23 -8 40 -25 60 -62 16 -28 35 -53 42 -56 8 -2 19 -20 25 -39 6 -19 15
-34 20 -34 8 0 26 -40 36 -84 7 -29 47 -95 63 -106 14 -9 82 -150 77 -159 -3
-5 3 -19 14 -32 11 -12 27 -46 36 -75 8 -29 21 -55 29 -58 8 -3 15 -12 15 -20
0 -20 51 -116 61 -116 15 0 13 143 -2 238 -5 31 -16 102 -24 157 -8 55 -20
118 -26 140 -6 22 -15 65 -20 95 -8 49 -40 125 -71 171 -15 21 -3 49 19 49 10
0 33 -9 51 -20 28 -17 33 -18 38 -5 7 16 -43 120 -86 180 -16 22 -29 49 -30
59 0 10 -9 28 -20 40 -95 97 -130 136 -130 144 0 5 -16 26 -36 48 -19 21 -42
46 -50 55 -8 9 -14 26 -14 38 0 14 -9 25 -25 31 -15 6 -25 17 -25 30 0 11 -11
27 -25 36 -14 9 -25 23 -25 31 0 12 -36 70 -51 83 -4 3 -10 16 -14 30 -18 61
-41 65 -47 8z"/>
<path d="M80 5711 c0 -12 5 -21 10 -21 6 0 10 6 10 14 0 8 -4 18 -10 21 -5 3
-10 -3 -10 -14z"/>
<path d="M5386 5721 c-4 -7 -5 -15 -2 -18 9 -9 19 4 14 18 -4 11 -6 11 -12 0z"/>
<path d="M240 5526 c0 -9 30 -14 35 -6 4 6 -3 10 -14 10 -12 0 -21 -2 -21 -4z"/>
<path d="M36 5505 c-4 -10 1 -15 14 -15 13 0 18 5 14 15 -4 8 -10 15 -14 15
-4 0 -10 -7 -14 -15z"/>
<path d="M240 5480 c0 -12 17 -12 45 0 17 7 15 9 -12 9 -18 1 -33 -3 -33 -9z"/>
<path d="M65 5430 c-12 -20 -7 -60 11 -77 12 -12 14 -11 13 9 -1 13 -4 37 -8
53 -5 24 -8 27 -16 15z"/>
<path d="M395 5420 c-3 -5 1 -10 10 -10 9 0 13 5 10 10 -3 6 -8 10 -10 10 -2
0 -7 -4 -10 -10z"/>
<path d="M51 5328 c-1 -17 5 -28 17 -31 9 -3 -2 -3 -26 0 -45 6 -55 -6 -27
-33 9 -10 12 -25 8 -44 -6 -31 -1 -35 42 -30 36 4 47 20 31 45 -14 21 -13 24
4 40 23 21 11 55 -20 55 -10 0 -21 6 -23 13 -3 6 -6 0 -6 -15z"/>
<path d="M140 5301 c0 -6 5 -13 10 -16 6 -3 10 1 10 9 0 9 -4 16 -10 16 -5 0
-10 -4 -10 -9z"/>
<path d="M28 5158 c-16 -5 -28 -13 -28 -17 0 -11 113 -22 122 -13 24 24 -49
47 -94 30z"/>
<path d="M6696 5113 c-6 -14 -5 -15 5 -6 7 7 10 15 7 18 -3 3 -9 -2 -12 -12z"/>
<path d="M0 5066 c0 -20 6 -25 38 -29 30 -3 62 4 80 18 1 1 0 10 -4 19 -8 20
-34 21 -34 1 0 -19 -11 -19 -36 0 -28 21 -44 18 -44 -9z"/>
<path d="M8713 5044 c-3 -8 -16 -20 -29 -25 -13 -4 -24 -16 -24 -26 0 -34 -27
-94 -49 -109 -12 -9 -21 -21 -19 -27 2 -10 -20 -56 -51 -107 -5 -8 -12 -23
-15 -33 -4 -11 -15 -21 -26 -24 -12 -3 -20 -14 -20 -27 0 -12 -5 -27 -11 -33
-6 -6 -16 -22 -23 -34 -6 -13 -26 -28 -44 -33 -21 -6 -32 -15 -32 -28 0 -10
-11 -24 -25 -30 -14 -6 -25 -19 -25 -28 0 -9 -11 -27 -25 -40 -14 -13 -25 -29
-25 -35 0 -20 -54 -71 -97 -91 -23 -10 -46 -29 -52 -42 -6 -12 -19 -26 -28
-29 -10 -4 -24 -15 -31 -24 -6 -10 -27 -23 -46 -29 -19 -6 -42 -22 -50 -36 -9
-13 -25 -24 -36 -24 -11 0 -29 -13 -41 -29 -12 -16 -30 -32 -41 -34 -11 -3
-22 -15 -25 -26 -3 -12 -14 -21 -24 -21 -11 0 -40 -20 -66 -45 -26 -26 -55
-45 -68 -45 -14 0 -26 -9 -33 -25 -8 -18 -22 -26 -51 -31 -23 -4 -48 -16 -60
-30 -15 -17 -31 -24 -56 -24 -34 0 -35 2 -35 36 0 27 5 37 20 41 13 4 20 14
20 30 0 21 22 79 52 136 7 13 5 17 -12 17 -13 0 -31 -17 -52 -50 -18 -27 -38
-50 -43 -50 -6 0 -15 -10 -20 -22 -6 -12 -20 -25 -33 -28 -15 -3 -30 -22 -46
-56 -19 -41 -30 -52 -57 -60 -23 -7 -35 -17 -37 -31 -2 -15 -13 -23 -38 -28
-24 -4 -38 -13 -44 -31 -5 -13 -15 -24 -22 -24 -16 -1 -58 -35 -58 -47 0 -11
-54 -43 -73 -43 -8 0 -17 -9 -20 -20 -3 -11 -14 -20 -25 -20 -10 0 -36 -13
-56 -29 -46 -37 -121 -55 -190 -47 -53 7 -53 7 -75 60 -19 47 -22 71 -22 200
1 80 -3 146 -8 146 -5 0 -14 -14 -20 -32 -6 -17 -17 -39 -25 -47 -7 -9 -18
-64 -24 -124 -6 -68 -16 -115 -25 -125 -8 -9 -18 -37 -22 -62 -4 -25 -18 -58
-31 -73 -13 -16 -24 -37 -24 -48 0 -11 -7 -22 -15 -25 -8 -4 -15 -12 -15 -20
0 -8 -9 -22 -20 -31 -11 -10 -20 -23 -20 -30 0 -15 -31 -33 -56 -33 -20 0 -94
-77 -94 -97 0 -7 -8 -13 -17 -13 -10 0 -27 -7 -37 -15 -15 -11 -16 -17 -7 -28
13 -16 98 -43 108 -34 6 7 63 -72 63 -87 0 -5 7 -14 16 -21 9 -6 20 -35 25
-64 4 -30 15 -59 25 -65 15 -11 15 -23 0 -158 -9 -80 -22 -159 -30 -174 -8
-16 -24 -49 -34 -74 -52 -121 -58 -130 -79 -136 -18 -5 -23 -13 -23 -40 0 -18
-5 -44 -11 -58 -7 -14 -9 -32 -5 -42 6 -15 8 -16 24 0 10 9 26 16 35 16 11 0
17 8 17 23 0 13 23 46 55 81 30 32 55 62 55 66 0 4 13 10 30 13 22 5 31 14 36
34 8 31 30 69 57 95 9 10 17 25 17 33 0 8 4 15 9 15 5 0 11 10 13 23 2 12 13
26 26 32 13 6 22 18 22 33 0 14 9 27 26 34 17 8 24 18 21 30 -4 13 4 22 29 34
20 10 34 24 34 34 0 10 7 20 15 24 9 3 15 18 15 39 0 24 8 41 29 61 15 15 32
26 37 25 21 -4 32 2 37 21 5 18 14 20 95 20 74 0 94 -3 115 -20 14 -11 30 -20
35 -20 6 0 14 -13 20 -28 5 -16 18 -37 28 -47 17 -17 19 -39 22 -217 3 -164 0
-204 -12 -230 -9 -17 -16 -46 -16 -65 0 -22 -10 -47 -26 -68 -14 -19 -28 -53
-31 -75 -4 -31 -12 -45 -29 -52 -15 -7 -24 -20 -24 -33 0 -31 -49 -101 -125
-179 -35 -36 -62 -66 -59 -66 3 0 48 23 99 50 51 28 101 50 112 50 10 0 29 10
43 23 14 12 40 29 59 37 19 7 54 31 79 52 24 21 66 50 93 63 26 14 64 41 84
61 20 19 46 37 59 40 12 2 59 40 104 84 45 44 87 80 93 80 7 0 18 8 26 18 12
15 13 13 7 -18 -7 -39 -41 -100 -55 -100 -5 0 -9 -8 -9 -17 0 -10 -14 -26 -30
-35 -18 -10 -30 -25 -30 -38 0 -11 -4 -20 -9 -20 -5 0 -14 -13 -21 -30 -7 -16
-16 -30 -21 -30 -5 0 -9 -7 -9 -15 0 -14 -17 -35 -90 -110 -11 -12 -20 -23
-20 -27 0 -10 -144 -158 -154 -158 -6 0 -30 -21 -55 -48 -26 -26 -59 -56 -76
-66 -16 -11 -39 -28 -50 -38 -61 -57 -86 -77 -104 -83 -10 -3 -26 -16 -34 -29
-9 -13 -29 -26 -46 -29 -22 -5 -31 -12 -31 -26 0 -14 -14 -26 -45 -40 -25 -11
-45 -27 -45 -35 0 -9 -11 -18 -25 -22 -14 -3 -30 -15 -36 -25 -5 -11 -30 -24
-55 -30 -32 -8 -48 -19 -54 -34 -5 -14 -21 -26 -39 -30 -17 -4 -36 -15 -41
-25 -5 -10 -24 -21 -41 -25 -18 -4 -41 -17 -53 -29 -12 -12 -33 -28 -48 -35
-15 -8 -36 -22 -47 -32 -10 -10 -35 -25 -55 -33 -20 -8 -39 -22 -42 -30 -3 -8
-27 -28 -52 -43 -97 -57 -128 -73 -144 -79 -10 -4 -18 -10 -18 -14 0 -4 -18
-15 -40 -25 -58 -26 -54 -49 8 -40 60 8 123 26 140 38 7 5 56 12 110 14 72 4
106 10 131 25 25 14 66 22 146 28 61 5 124 16 141 24 16 8 81 23 144 32 63 9
122 22 130 29 8 7 59 19 114 26 76 11 103 19 123 36 19 19 36 23 83 23 48 0
64 5 88 25 17 14 41 25 54 25 34 0 89 19 113 39 27 23 71 41 100 41 13 0 36
10 52 23 41 34 125 87 137 87 5 0 23 12 38 27 16 15 48 34 71 43 36 13 42 20
45 47 2 23 14 41 44 65 22 18 75 68 117 110 71 72 174 137 186 119 2 -5 -5
-32 -15 -62 -12 -30 -18 -65 -15 -80 4 -18 0 -31 -15 -44 -11 -10 -20 -31 -20
-46 0 -15 -6 -32 -14 -36 -8 -4 -16 -19 -18 -33 -1 -14 -7 -24 -11 -22 -11 4
-36 -31 -67 -93 -22 -43 -70 -110 -140 -193 -11 -13 -20 -30 -20 -37 0 -8 -21
-36 -46 -62 -26 -26 -41 -49 -36 -51 10 -3 128 88 142 109 3 4 18 11 33 14 16
4 34 16 40 26 7 11 23 19 37 19 31 1 55 18 64 46 4 12 15 24 25 27 11 2 21 15
23 28 2 16 11 25 25 27 12 2 28 17 38 35 45 90 75 133 98 141 18 7 27 21 37
58 8 31 21 55 36 65 13 8 24 22 24 30 0 18 67 145 81 154 6 3 23 57 38 120 16
63 40 144 54 180 14 36 30 92 37 125 16 78 16 75 24 106 5 17 16 28 29 30 16
2 23 13 30 46 10 52 35 70 99 70 68 0 73 -9 73 -152 0 -145 -39 -328 -75 -353
-13 -9 -20 -25 -20 -47 0 -33 -18 -57 -52 -69 -14 -5 -18 -18 -18 -55 0 -63
-16 -109 -41 -115 -12 -3 -19 -14 -19 -30 0 -18 -8 -29 -30 -39 -27 -11 -30
-18 -30 -55 0 -24 0 -46 -1 -50 0 -4 3 -9 8 -10 17 -5 70 55 122 137 30 47 62
94 72 105 9 11 29 42 44 70 14 27 34 53 43 56 11 4 24 28 32 59 10 36 21 56
36 62 17 8 24 22 29 60 4 26 12 54 19 61 6 6 18 28 25 47 7 19 17 44 22 55 10
23 38 127 46 167 3 16 9 28 13 28 4 0 10 26 13 58 4 32 15 97 26 143 38 162
54 374 48 635 -4 187 -9 251 -23 294 -21 66 -25 161 -6 167 7 3 12 -4 12 -15
0 -11 7 -25 16 -33 18 -15 63 -103 89 -174 10 -27 24 -57 32 -66 7 -8 18 -30
24 -47 6 -18 17 -32 25 -32 28 0 12 253 -27 420 -11 47 -24 110 -30 140 -6 30
-19 84 -29 120 -11 36 -22 81 -26 100 -3 19 -15 53 -26 74 -11 22 -24 62 -29
90 -17 103 -21 115 -40 121 -10 4 -19 13 -19 21 0 8 -11 31 -24 52 -14 20 -28
51 -32 67 -7 28 -16 43 -71 114 -13 16 -23 33 -23 39 0 5 -7 15 -15 22 -21 17
-45 69 -45 95 0 13 -7 25 -15 29 -8 3 -15 9 -14 13 4 22 -4 33 -36 53 -19 12
-35 28 -35 36 0 7 -13 20 -30 29 -16 9 -30 22 -30 30 0 7 -8 16 -19 20 -10 3
-26 14 -36 25 -22 24 -53 26 -62 4z m-1493 -1998 c19 -1 46 -3 60 -4 19 -2 21
-5 12 -14 -7 -7 -12 -18 -12 -26 0 -12 10 -13 53 -8 28 4 71 7 94 6 23 0 44 4
48 10 3 5 11 10 16 10 6 0 8 -4 5 -9 -9 -14 22 -22 64 -15 24 4 40 2 45 -6 11
-18 -1 -23 -50 -22 -45 2 -83 -10 -97 -32 -6 -8 -10 -8 -15 0 -5 6 -38 14 -75
17 -56 5 -68 4 -68 -8 0 -24 -47 -17 -75 10 -14 14 -25 32 -25 39 0 27 -27 39
-52 22 -13 -8 -34 -15 -48 -17 -31 -3 -80 10 -80 22 0 5 7 6 15 3 9 -4 19 3
25 18 11 23 14 23 68 15 31 -4 73 -9 92 -11z m169 -22 c2 -2 2 -7 -2 -10 -10
-10 -58 6 -52 17 6 8 42 4 54 -7z m151 -145 c0 -5 -11 -9 -25 -9 -26 0 -34 15
-12 23 16 5 37 -3 37 -14z m30 1 c0 -5 -5 -10 -11 -10 -5 0 -7 5 -4 10 3 6 8
10 11 10 2 0 4 -4 4 -10z m40 -280 c0 -5 -2 -10 -4 -10 -3 0 -8 5 -11 10 -3 6
-1 10 4 10 6 0 11 -4 11 -10z m60 -190 c0 -5 -4 -10 -10 -10 -5 0 -10 5 -10
10 0 6 5 10 10 10 6 0 10 -4 10 -10z"/>
<path d="M13 4973 c-19 -7 -16 -43 3 -43 24 0 54 19 54 35 0 15 -31 19 -57 8z"/>
<path d="M36 4923 c-3 -3 -6 -21 -6 -40 0 -23 -5 -33 -15 -33 -8 0 -15 -7 -15
-16 0 -22 79 -15 94 8 17 28 -36 103 -58 81z"/>
<path d="M160 4876 c0 -14 5 -26 10 -26 6 0 10 9 10 19 0 11 -4 23 -10 26 -6
4 -10 -5 -10 -19z"/>
<path d="M0 4781 c0 -5 18 -16 40 -25 48 -19 50 -32 8 -49 l-33 -14 38 -36
c42 -41 45 -47 17 -47 -17 0 -20 -7 -20 -40 0 -29 -4 -40 -15 -40 -11 0 -15
-13 -15 -53 0 -28 4 -66 9 -84 7 -24 5 -38 -11 -63 -17 -28 -19 -45 -14 -124
6 -105 6 -90 0 -309 -3 -115 -1 -173 6 -182 8 -9 8 -15 0 -20 -5 -3 -10 -33
-10 -65 0 -47 3 -59 18 -63 16 -4 16 -5 -1 -6 -15 -1 -18 -9 -16 -48 2 -27 7
-51 13 -55 7 -5 7 -8 -1 -8 -22 0 -14 -47 10 -63 l22 -16 -22 -18 -23 -18 0
-1658 0 -1657 999 0 999 0 5 22 c8 28 9 26 -41 29 -47 3 -51 8 -22 27 15 9 18
19 15 42 -3 16 -7 43 -10 59 -6 39 17 70 38 53 12 -10 14 -26 10 -68 -4 -33
-2 -54 4 -54 6 0 9 28 8 68 -4 117 -3 115 -25 109 -26 -7 -47 18 -31 37 7 8
20 12 30 9 14 -4 18 2 19 31 1 20 -3 36 -9 36 -13 0 11 25 31 32 30 10 -48 38
-104 38 -60 0 -83 -14 -37 -23 16 -3 36 -13 44 -22 9 -8 22 -15 29 -15 9 -1 7
-5 -4 -14 -21 -15 -23 -32 -5 -39 6 -3 -15 -6 -49 -6 -33 -1 -65 -6 -70 -11
-7 -7 -19 -6 -37 3 l-27 14 43 13 c41 12 41 13 17 22 l-25 9 24 20 c21 17 23
23 13 40 -11 17 -9 21 15 30 42 17 153 23 153 8 0 -8 4 -8 15 1 18 15 19 31 3
64 -9 20 -14 23 -25 15 -9 -9 -13 -8 -13 0 0 6 -13 11 -30 11 -16 0 -30 -4
-30 -10 0 -5 7 -10 16 -10 9 0 14 -6 12 -12 -5 -13 -111 -29 -135 -20 -19 6
-16 20 7 27 11 3 20 11 20 16 0 5 7 9 16 9 13 0 14 3 4 15 -7 8 -16 13 -20 10
-5 -3 -21 0 -37 6 l-28 11 21 16 c12 9 31 23 42 31 30 21 21 27 -32 23 -34 -3
-46 -8 -47 -21 -4 -70 -2 -66 -42 -66 -23 0 -37 -5 -37 -12 0 -7 8 -13 18 -13
14 0 15 -2 2 -10 -10 -6 -16 -6 -18 0 -2 6 -21 10 -43 10 -34 0 -39 3 -39 24
0 13 -7 29 -15 36 -16 13 -10 34 8 27 7 -2 20 3 30 11 16 14 19 13 40 -5 31
-28 47 -19 47 28 0 35 3 39 25 39 33 0 32 12 -6 49 -37 38 -49 39 -49 6 0 -22
-4 -25 -40 -25 -60 0 -120 27 -120 54 0 35 -20 49 -42 30 -16 -15 -18 -15 -24
0 -10 25 3 48 23 42 16 -5 18 0 15 42 -3 39 0 49 17 60 18 10 21 10 21 -4 0
-40 24 -94 41 -94 9 0 20 6 22 13 3 6 6 2 6 -10 1 -13 7 -23 14 -24 6 0 -6 -9
-27 -19 l-39 -18 39 -11 c51 -14 59 -14 73 3 9 10 8 16 -4 26 -14 12 -13 15
10 30 l25 17 -24 25 c-29 33 -42 93 -24 115 12 15 10 16 -17 9 l-30 -7 25 20
c22 18 23 23 12 41 -7 11 -10 25 -7 30 4 6 -1 10 -9 10 -9 0 -16 -4 -16 -9 0
-15 -41 -24 -53 -12 -6 6 -44 11 -84 11 l-73 0 0 40 c0 29 -4 40 -15 40 -11 0
-15 -11 -15 -40 0 -38 -2 -40 -30 -40 -28 0 -30 2 -30 39 0 23 -5 41 -12 44
-10 3 -10 7 1 20 14 18 42 22 55 10 10 -11 90 -3 97 9 4 7 26 9 53 6 49 -6 68
4 39 21 -15 9 -13 10 15 11 17 0 32 -4 32 -10 0 -13 47 -13 55 0 3 5 -3 10
-14 10 -14 0 -21 6 -21 20 0 24 3 24 -45 0 -23 -12 -59 -20 -88 -20 -40 0 -52
5 -73 28 -17 18 -27 23 -31 15 -7 -19 -83 -17 -83 2 0 11 11 15 40 15 22 0 40
5 40 10 0 6 7 10 16 10 9 0 14 5 12 12 -6 18 -28 21 -28 4 0 -13 -12 -16 -65
-16 -36 0 -65 4 -65 8 0 18 37 42 64 42 14 0 29 7 32 15 4 9 19 15 38 15 28 1
29 2 14 14 -10 7 -18 24 -18 37 1 22 2 23 14 7 7 -10 19 -18 26 -18 7 0 19 8
26 18 12 16 13 15 14 -7 0 -13 -7 -29 -17 -36 -9 -7 -14 -19 -10 -29 8 -20 27
-21 27 -1 0 8 7 15 15 15 11 0 15 11 15 40 0 38 -1 40 -32 40 -29 0 -30 1 -15
18 10 10 17 22 17 25 0 13 -38 7 -50 -8 -16 -19 -30 -19 -30 1 0 26 -54 14
-58 -13 -2 -16 2 -23 12 -23 12 0 16 -10 16 -40 0 -34 -3 -40 -21 -40 -11 0
-27 7 -35 15 -9 8 -26 15 -40 15 -21 0 -24 4 -18 24 7 29 -4 55 -15 37 -9 -13
-81 13 -81 29 0 6 18 17 40 26 22 9 40 20 40 26 0 5 -12 20 -28 34 -18 17 -23
27 -15 31 8 3 13 24 13 51 0 69 8 76 80 73 56 -2 64 0 87 25 l25 27 -127 -7
-128 -6 5 50 c5 47 -3 63 -17 40 -3 -6 -15 -10 -26 -10 -16 0 -19 -7 -20 -42
0 -24 -3 -36 -6 -28 -4 8 -12 21 -20 28 -18 18 -17 42 2 42 18 0 19 12 3 28
-9 9 -8 12 3 16 8 2 32 10 54 17 30 10 35 14 20 17 -11 2 -24 8 -29 12 -5 5
-31 6 -58 3 -37 -4 -52 -2 -59 8 -15 24 -11 -12 5 -42 11 -22 11 -29 0 -44
-13 -17 -14 -15 -14 23 0 29 -4 42 -14 42 -18 0 -30 71 -13 82 8 5 4 8 -11 8
-13 0 -21 -4 -18 -8 3 -5 1 -22 -4 -38 -4 -16 -9 -22 -9 -13 -1 9 -8 22 -16
29 -9 7 -15 29 -15 55 l0 42 -52 7 c-29 4 -61 8 -70 9 -35 3 3 21 46 22 47 1
80 20 72 41 -3 7 6 20 19 28 20 13 28 14 45 4 15 -10 22 -10 32 0 9 9 7 17
-10 35 -27 28 -20 37 27 38 20 0 43 3 53 7 13 6 10 11 -18 32 -29 22 -33 31
-34 69 0 35 -3 42 -16 37 -9 -3 -22 -6 -30 -6 -22 0 -19 -77 4 -83 16 -4 16
-5 -2 -12 -12 -5 -30 -3 -50 7 -55 26 -93 36 -109 27 -11 -7 -17 -4 -22 11 -9
27 11 50 41 50 15 0 24 6 24 15 0 11 -11 15 -40 15 -29 0 -40 -4 -40 -15 0 -8
-7 -15 -15 -15 -11 0 -15 11 -15 40 0 36 -2 40 -25 40 -14 0 -25 -5 -25 -11 0
-6 -7 -9 -15 -5 -8 3 -27 1 -41 -4 -18 -7 -38 -7 -65 1 -44 14 -49 24 -16 34
16 5 18 8 7 11 -45 16 -60 27 -49 41 6 7 18 13 25 13 10 0 13 7 8 24 -7 30 18
47 58 39 15 -3 35 -2 45 1 15 6 15 8 3 17 -12 7 -8 16 24 44 21 19 44 35 52
35 18 0 18 14 -1 30 -13 10 -15 9 -15 -9 0 -11 -4 -21 -10 -21 -5 0 -10 14
-10 31 0 17 4 28 10 24 6 -3 10 1 10 9 0 12 -10 16 -40 16 -29 0 -40 4 -40 15
0 19 -10 19 -38 -1 -12 -8 -34 -13 -50 -11 -26 4 -26 5 -5 12 12 4 25 16 28
26 4 10 15 19 26 19 10 0 19 6 19 14 0 8 12 17 26 20 28 7 28 24 -2 40 -10 6
-21 12 -23 14 -3 1 -4 19 -3 40 2 36 1 37 -29 37 -21 0 -35 7 -43 20 -6 11
-17 24 -23 28 -18 11 -16 47 2 47 8 0 15 5 15 10 0 6 5 10 10 10 6 0 10 -7 10
-15 0 -21 30 -19 46 3 20 26 17 49 -8 57 -22 7 -21 8 7 12 16 3 31 0 33 -6 2
-6 10 -11 18 -11 11 0 14 9 12 33 -3 27 -7 32 -31 32 -15 1 -35 9 -44 18 -16
16 -16 17 2 18 11 1 28 0 38 -1 17 -1 16 2 -5 30 -19 26 -28 31 -55 28 -22 -3
-33 0 -33 9 0 9 -17 13 -55 13 -30 0 -55 3 -55 6 0 3 6 18 14 32 8 15 17 35
20 45 5 16 12 18 46 12 27 -4 46 -3 55 5 8 7 26 10 39 8 32 -6 57 8 37 21 -7
5 -21 6 -31 4 -22 -6 -37 16 -19 28 19 11 -5 20 -62 22 -32 1 -44 6 -44 17 0
11 12 16 44 17 63 3 76 9 57 28 -19 19 -50 19 -103 -1 -41 -16 -44 -16 -57 1
-9 13 -20 16 -38 12 -19 -5 -32 0 -52 18 -14 13 -26 29 -26 35 0 13 47 13 55
0 9 -14 38 -12 69 4 18 9 39 11 65 6 45 -8 70 1 49 17 -24 18 -48 23 -73 13
-16 -6 -35 -6 -53 1 l-27 11 29 23 c25 20 28 28 24 64 -2 22 0 41 4 41 5 0 8
7 8 16 0 13 -5 12 -29 -5 -33 -24 -60 -29 -43 -8 7 8 7 18 2 27 -12 19 -4 30
23 31 24 1 -24 17 -80 26 -33 5 -45 27 -20 36 6 2 4 3 -5 2 -10 -2 -22 3 -29
11 -9 11 -7 14 12 14 29 1 63 25 55 38 -7 12 -46 22 -46 12 0 -4 -26 -8 -58
-7 -31 0 -67 -5 -80 -12 -18 -10 -22 -9 -22 3 0 18 16 23 105 32 39 4 64 9 58
11 -8 3 -13 21 -12 46 0 23 3 36 6 30 2 -8 22 -13 44 -13 38 0 39 1 39 35 0
35 -1 35 -43 35 -23 0 -57 4 -76 10 -25 7 -42 5 -68 -5 -47 -20 -50 -19 -55
10 -4 19 3 34 29 60 38 39 83 50 61 15 -15 -23 -2 -53 25 -58 23 -5 40 33 27
58 -9 17 -8 20 9 20 14 0 19 5 15 15 -4 9 -19 15 -39 15 -47 0 -95 49 -95 96
0 19 4 34 8 34 5 0 14 18 21 41 12 41 3 96 -22 127 -11 14 -117 17 -117 3z
m130 -561 c0 -5 -7 -10 -16 -10 -8 0 -12 5 -9 10 3 6 10 10 16 10 5 0 9 -4 9
-10z m130 -179 c0 -6 -4 -13 -10 -16 -5 -3 -10 1 -10 9 0 9 5 16 10 16 6 0 10
-4 10 -9z m60 -381 c0 -5 -5 -10 -11 -10 -5 0 -7 5 -4 10 3 6 8 10 11 10 2 0
4 -4 4 -10z m125 -30 c0 -8 -10 -16 -22 -18 -18 -3 -23 2 -23 18 0 16 5 21 23
18 12 -2 22 -10 22 -18z m-111 -102 c19 -26 20 -38 5 -38 -16 0 -39 26 -39 44
0 23 16 20 34 -6z m74 -54 c12 -2 22 -11 22 -18 0 -11 -13 -13 -62 -9 -72 7
-70 6 -63 25 5 14 44 15 103 2z m-158 -19 c9 -10 9 -15 1 -15 -21 0 -11 -29
11 -32 21 -3 21 -4 4 -20 -23 -23 -37 -23 -43 2 -4 16 -14 20 -44 20 -42 0
-68 27 -47 48 18 18 103 15 118 -3z m235 -35 c4 -6 -5 -10 -20 -10 -15 0 -24
4 -20 10 3 6 12 10 20 10 8 0 17 -4 20 -10z m-305 -105 c0 -19 -9 -19 -34 0
-19 14 -19 15 7 15 17 0 27 -5 27 -15z m250 5 c0 -5 -7 -10 -15 -10 -8 0 -15
5 -15 10 0 6 7 10 15 10 8 0 15 -4 15 -10z m-170 -59 c0 -12 -39 -25 -47 -17
-4 3 1 6 10 6 10 0 17 5 17 10 0 6 5 10 10 10 6 0 10 -4 10 -9z m90 -16 c0 -2
-9 -9 -19 -14 -14 -8 -22 -7 -31 4 -11 13 -8 15 19 15 17 0 31 -2 31 -5z
m-150 -45 c9 -6 10 -10 3 -10 -6 0 -18 -3 -27 -6 -11 -4 -16 -1 -16 10 0 18
17 21 40 6z m200 -20 c0 -21 -27 -26 -65 -11 -18 7 -17 9 10 19 44 16 55 14
55 -8z m-243 -52 c-3 -8 -6 -5 -6 6 -1 11 2 17 5 13 3 -3 4 -12 1 -19z m213
-26 c0 -5 -11 -14 -25 -20 -20 -9 -25 -9 -25 2 0 7 3 16 7 19 9 10 43 9 43 -1z
m160 -52 c0 -22 -4 -40 -10 -40 -5 0 -10 18 -10 40 0 22 5 40 10 40 6 0 10
-18 10 -40z m-180 -36 c0 -2 -7 -4 -15 -4 -8 0 -15 4 -15 10 0 5 7 7 15 4 8
-4 15 -8 15 -10z m70 2 c0 -3 -4 -8 -10 -11 -5 -3 -10 -1 -10 4 0 6 5 11 10
11 6 0 10 -2 10 -4z m-101 -128 c0 -33 -2 -38 -9 -23 -12 28 -12 65 0 65 6 0
10 -19 9 -42z m282 18 c28 -24 28 -24 6 -30 -40 -10 -47 -7 -47 24 0 36 4 37
41 6z m-25 -367 c-5 -33 -16 -52 -16 -28 0 8 -9 20 -20 27 -26 16 -17 32 16
32 23 0 25 -3 20 -31z m128 -28 c17 -19 17 -20 -3 -31 -15 -8 -27 -8 -42 0
-20 11 -20 12 -3 31 9 10 20 19 24 19 4 0 15 -9 24 -19z m-98 -88 c-11 -12
-27 13 -20 32 7 17 8 17 17 -3 6 -12 7 -25 3 -29z m224 -3 c0 -5 -18 -10 -40
-10 -22 0 -40 5 -40 10 0 6 18 10 40 10 22 0 40 -4 40 -10z m-190 -40 c0 -5
-5 -10 -11 -10 -5 0 -7 5 -4 10 3 6 8 10 11 10 2 0 4 -4 4 -10z m240 -15 c0
-24 -2 -25 -22 -13 -20 10 -21 13 -5 16 9 2 17 8 17 13 0 5 2 9 5 9 3 0 5 -11
5 -25z m-60 11 c0 -9 -30 -14 -35 -6 -4 6 3 10 14 10 12 0 21 -2 21 -4z m-44
-82 c27 -15 27 -15 4 -10 -14 3 -33 6 -42 6 -10 0 -18 5 -18 10 0 15 24 12 56
-6z m126 -359 c0 -5 -5 -11 -11 -13 -6 -2 -11 4 -11 13 0 9 5 15 11 13 6 -2
11 -8 11 -13z m-232 -15 c0 -5 -7 -10 -15 -10 -8 0 -15 5 -15 10 0 6 7 10 15
10 8 0 15 -4 15 -10z m470 -81 c15 -27 10 -31 -50 -37 -47 -4 -50 -6 -50 -33
0 -27 3 -29 40 -29 36 0 40 -2 40 -25 0 -22 -4 -25 -38 -25 -26 0 -45 7 -57
20 -10 11 -29 20 -42 20 -20 0 -23 5 -23 40 0 37 2 40 29 40 22 0 30 6 35 25
6 22 11 25 56 25 40 0 51 -4 60 -21z m0 -379 c13 -9 13 -11 0 -20 -8 -5 -17
-10 -20 -10 -3 0 -12 5 -20 10 -13 9 -13 11 0 20 8 5 17 10 20 10 3 0 12 -5
20 -10z m-340 -10 c0 -5 -2 -10 -4 -10 -3 0 -8 5 -11 10 -3 6 -1 10 4 10 6 0
11 -4 11 -10z m126 -117 c-11 -11 -17 4 -9 23 7 18 8 18 11 1 2 -10 1 -21 -2
-24z m354 -133 c0 -13 -5 -18 -15 -14 -8 4 -15 12 -15 20 0 8 7 14 15 14 8 0
15 -9 15 -20z m275 -71 c4 -5 -5 -21 -18 -33 l-25 -24 -38 23 -38 23 44 10
c61 13 68 14 75 1z m-142 -14 c1 -6 -10 -11 -25 -13 -31 -4 -39 14 -10 21 23
6 33 4 35 -8z m27 -220 c0 -8 -9 -15 -20 -15 -11 0 -20 7 -20 15 0 8 9 15 20
15 11 0 20 -7 20 -15z m240 -135 c0 -18 -39 -31 -60 -20 -16 9 -20 8 -20 -6 0
-13 -6 -15 -31 -10 -17 3 -53 6 -80 6 -27 0 -49 5 -49 10 0 6 29 10 68 10 37
0 74 5 82 10 19 13 90 13 90 0z m-800 -10 c0 -5 -7 -10 -15 -10 -8 0 -15 5
-15 10 0 6 7 10 15 10 8 0 15 -4 15 -10z m830 -216 c0 -2 -7 -4 -15 -4 -8 0
-15 4 -15 10 0 5 7 7 15 4 8 -4 15 -8 15 -10z m39 -35 c39 -14 38 -43 -1 -47
-28 -3 -55 28 -43 48 8 12 5 12 44 -1z m165 -159 c5 -5 6 -15 3 -23 -5 -13
-10 -13 -41 1 -46 22 -49 46 -3 37 17 -4 36 -11 41 -15z m6 -80 c0 -11 -7 -20
-15 -20 -27 0 -18 30 13 39 1 1 2 -8 2 -19z m0 -85 c0 -8 -6 -15 -14 -15 -17
0 -28 14 -19 24 12 12 33 6 33 -9z"/>
<path d="M1040 1719 c0 -5 5 -7 10 -4 6 3 10 8 10 11 0 2 -4 4 -10 4 -5 0 -10
-5 -10 -11z"/>
<path d="M6267 4784 c-4 -4 -7 -14 -7 -23 0 -11 3 -12 11 -4 6 6 10 16 7 23
-2 6 -7 8 -11 4z"/>
<path d="M170 4695 c-17 -20 -7 -28 30 -28 16 0 33 3 36 6 10 10 -16 37 -36
37 -10 0 -23 -7 -30 -15z"/>
<path d="M350 4693 c8 -3 23 -12 33 -21 15 -14 17 -14 17 0 0 17 -21 29 -48
27 -14 0 -14 -2 -2 -6z"/>
<path d="M255 4680 c3 -5 15 -10 25 -10 10 0 22 5 25 10 4 6 -7 10 -25 10 -18
0 -29 -4 -25 -10z"/>
<path d="M6210 4665 c-7 -8 -8 -15 -2 -15 5 0 15 7 22 15 7 8 8 15 2 15 -5 0
-15 -7 -22 -15z"/>
<path d="M6155 4660 c-8 -13 3 -30 18 -30 8 0 7 3 -2 9 -7 5 -10 14 -7 20 4 6
5 11 2 11 -3 0 -8 -4 -11 -10z"/>
<path d="M6114 4629 c-7 -11 12 -29 31 -29 6 0 4 4 -4 9 -7 5 -10 14 -7 20 4
6 3 11 -3 11 -5 0 -13 -5 -17 -11z"/>
<path d="M190 4610 c0 -5 5 -10 10 -10 6 0 10 5 10 10 0 6 -4 10 -10 10 -5 0
-10 -4 -10 -10z"/>
<path d="M178 4552 c-11 -2 -18 -13 -18 -28 0 -23 3 -24 63 -23 46 1 66 6 79
20 12 12 14 20 7 25 -12 7 -103 11 -131 6z"/>
<path d="M262 4428 c2 -16 11 -24 28 -27 14 -1 28 -8 32 -15 4 -6 8 7 8 29 0
29 -3 36 -10 25 -6 -10 -10 -11 -10 -2 0 6 -12 12 -26 12 -21 0 -25 -4 -22
-22z"/>
<path d="M385 4380 c-3 -5 -1 -10 4 -10 6 0 11 5 11 10 0 6 -2 10 -4 10 -3 0
-8 -4 -11 -10z"/>
<path d="M345 4300 c-3 -5 3 -10 15 -10 12 0 18 5 15 10 -3 6 -10 10 -15 10
-5 0 -12 -4 -15 -10z"/>
<path d="M363 4182 c-56 -4 -55 -19 2 -24 49 -3 65 -1 65 12 0 12 -20 15 -67
12z"/>
<path d="M417 3989 c-22 -13 -22 -28 1 -45 16 -13 16 -15 -2 -28 -30 -24 -9
-39 47 -33 35 4 56 1 73 -10 15 -9 24 -11 24 -4 0 6 17 11 38 11 41 0 71 14
58 27 -5 4 -11 2 -13 -4 -6 -18 -63 -16 -106 2 -20 8 -46 14 -58 12 -35 -4
-33 21 3 37 l33 14 -32 1 c-18 1 -36 7 -40 15 -6 11 -13 12 -26 5z"/>
<path d="M5790 3970 c-13 -8 -12 -10 3 -10 9 0 17 5 17 10 0 12 -1 12 -20 0z"/>
<path d="M5750 3935 c-7 -9 -8 -15 -2 -15 5 0 12 7 16 15 3 8 4 15 2 15 -2 0
-9 -7 -16 -15z"/>
<path d="M568 3653 c7 -3 16 -2 19 1 4 3 -2 6 -13 5 -11 0 -14 -3 -6 -6z"/>
<path d="M480 3560 c0 -5 7 -7 15 -4 8 4 15 8 15 10 0 2 -7 4 -15 4 -8 0 -15
-4 -15 -10z"/>
<path d="M640 3560 c0 -5 5 -10 10 -10 6 0 10 5 10 10 0 6 -4 10 -10 10 -5 0
-10 -4 -10 -10z"/>
<path d="M640 3080 c0 -5 5 -10 10 -10 6 0 10 5 10 10 0 6 -4 10 -10 10 -5 0
-10 -4 -10 -10z"/>
<path d="M683 2834 c-7 -18 7 -46 25 -52 8 -2 12 9 12 32 0 38 -25 51 -37 20z"/>
<path d="M783 2833 c-18 -7 -16 -23 2 -23 8 0 15 7 15 15 0 8 -1 15 -2 14 -2
0 -9 -3 -15 -6z"/>
<path d="M640 2785 c0 -9 9 -15 21 -15 18 0 19 2 9 15 -7 8 -16 15 -21 15 -5
0 -9 -7 -9 -15z"/>
<path d="M825 2730 c-3 -6 1 -13 10 -16 19 -8 30 0 20 15 -8 14 -22 14 -30 1z"/>
<path d="M595 2700 c-4 -6 5 -10 19 -10 16 0 26 -6 26 -15 0 -11 11 -15 40
-15 29 0 40 4 40 15 0 11 -11 15 -40 15 -22 0 -40 5 -40 10 0 6 -9 10 -19 10
-11 0 -23 -4 -26 -10z"/>
<path d="M850 2681 c0 -17 12 -41 21 -41 5 0 9 7 9 15 0 8 5 15 10 15 6 0 10
5 10 10 0 6 -11 10 -25 10 -14 0 -25 -4 -25 -9z"/>
<path d="M3212 2594 c-18 -8 -37 -12 -42 -9 -5 3 -21 -10 -37 -29 -15 -20 -40
-38 -55 -41 -14 -4 -33 -17 -42 -29 -8 -13 -29 -26 -47 -30 -17 -3 -42 -16
-54 -29 -39 -39 -114 -92 -137 -97 -13 -3 -25 -14 -27 -25 -3 -20 -76 -95 -92
-95 -5 0 -11 -11 -15 -25 -3 -14 -15 -30 -25 -35 -10 -6 -35 -35 -55 -66 -20
-31 -43 -58 -51 -61 -7 -3 -20 -22 -29 -42 -9 -20 -20 -43 -25 -51 -18 -30
-27 -57 -42 -135 -37 -187 -60 -282 -78 -321 -10 -22 -19 -45 -19 -51 0 -6 -7
-24 -15 -40 -7 -15 -22 -50 -32 -77 -10 -26 -25 -51 -33 -54 -26 -9 -59 -56
-60 -85 0 -17 -7 -30 -17 -34 -10 -4 -21 -11 -25 -17 -35 -55 -75 -105 -84
-106 -7 0 -24 -16 -38 -35 -15 -19 -34 -35 -42 -35 -8 0 -17 -7 -20 -15 -3 -8
-14 -17 -25 -20 -21 -7 -26 -41 -7 -47 16 -6 170 16 186 25 6 5 12 14 12 20 0
7 14 18 30 26 17 7 43 26 58 41 28 30 72 43 79 24 2 -7 -7 -24 -22 -39 -14
-16 -25 -34 -25 -41 0 -8 -4 -14 -10 -14 -5 0 -10 -9 -10 -20 0 -11 -4 -28 -9
-38 -5 -9 -19 -38 -31 -64 -12 -27 -25 -50 -29 -53 -5 -2 -14 -26 -21 -52 -7
-27 -25 -86 -40 -133 -16 -47 -31 -112 -34 -145 -8 -87 -21 -152 -35 -168 -7
-9 -8 -16 -2 -19 6 -1 13 -45 17 -95 l7 -93 93 0 92 0 11 50 c6 28 20 70 31
92 11 23 20 48 20 55 0 7 5 13 10 13 6 0 16 12 23 27 6 15 22 37 35 50 12 12
22 34 22 48 0 25 39 75 59 75 5 0 11 6 13 14 4 20 137 156 152 156 7 0 18 11
24 25 6 14 17 25 24 25 7 0 28 16 48 35 29 29 44 35 84 37 86 5 83 -29 -19
-197 -14 -22 -29 -49 -35 -60 -6 -11 -19 -33 -30 -50 -11 -16 -32 -54 -46 -83
-15 -29 -35 -57 -45 -63 -11 -5 -26 -25 -34 -44 -7 -19 -19 -35 -24 -35 -6 0
-11 -6 -11 -13 0 -8 -7 -27 -14 -43 -8 -16 -18 -48 -22 -71 l-7 -43 52 0 c43
0 51 3 51 19 0 10 7 24 15 31 8 7 15 21 15 31 0 22 16 34 25 19 11 -17 45 19
45 47 0 12 4 23 10 23 5 0 12 11 16 24 4 16 15 26 35 30 19 4 33 14 39 31 5
14 15 25 23 25 7 0 21 14 30 30 10 17 35 39 55 51 20 11 64 36 97 55 33 20 86
41 117 48 31 6 67 21 80 32 17 16 43 23 103 29 44 4 89 8 101 9 11 1 31 10 44
19 30 21 52 21 88 3 15 -7 57 -17 94 -20 37 -4 72 -14 78 -21 20 -24 8 -69
-22 -83 -16 -7 -28 -21 -28 -31 0 -10 -11 -23 -25 -29 -14 -7 -30 -23 -35 -37
-5 -14 -16 -25 -23 -25 -8 0 -30 -13 -49 -28 -35 -27 -58 -39 -163 -79 -65
-25 -71 -48 -13 -57 71 -10 282 34 335 70 20 13 46 24 59 24 12 0 35 11 51 24
17 15 48 26 81 31 30 4 81 18 115 31 40 16 81 24 121 24 81 0 183 17 226 37
19 9 70 20 115 25 133 16 145 18 145 32 0 15 20 21 102 31 43 5 57 11 61 25 3
13 18 21 43 25 76 12 86 16 91 35 3 11 9 21 14 21 5 1 14 3 19 4 6 1 21 3 34
4 24 1 37 16 64 76 6 11 23 27 38 35 16 8 31 17 34 20 3 3 27 17 53 30 27 14
58 37 69 53 10 15 29 27 40 27 12 0 18 3 15 6 -13 13 14 44 38 44 14 0 25 4
25 9 0 5 10 13 22 17 12 3 62 43 112 88 124 111 183 153 198 138 15 -15 -7
-59 -54 -110 -20 -21 -43 -52 -51 -68 -26 -48 -169 -188 -223 -218 -16 -8 -42
-26 -57 -39 -24 -20 -26 -25 -13 -30 9 -4 36 0 59 8 23 8 83 22 132 31 57 10
98 23 112 36 11 11 39 22 61 25 29 4 46 13 61 34 14 18 31 29 46 29 13 0 36
11 51 25 15 14 39 25 55 25 19 0 34 9 49 30 17 24 29 30 59 30 31 0 40 5 49
26 7 14 28 32 47 40 19 8 35 20 35 28 0 7 20 19 45 26 27 8 47 20 50 31 4 10
21 23 38 27 20 6 32 15 31 25 -1 9 7 19 17 22 11 4 34 20 52 36 17 16 46 33
62 37 17 5 35 18 40 30 6 13 20 25 32 28 12 3 25 14 28 24 6 19 53 40 87 40
10 0 21 8 24 17 18 53 36 80 68 97 19 10 37 29 40 42 4 13 11 24 17 24 16 0
69 63 69 82 0 28 -18 31 -55 9 -19 -11 -62 -25 -97 -32 -35 -7 -71 -20 -81
-30 -13 -15 -32 -19 -78 -19 -54 0 -64 3 -81 26 -11 14 -27 23 -34 20 -11 -4
-14 7 -14 53 0 64 14 117 35 124 7 3 21 32 31 64 12 39 32 72 61 103 24 24 43
54 43 65 0 11 11 38 25 60 13 22 25 47 25 56 0 9 7 22 14 29 8 6 22 35 32 63
9 29 21 57 25 63 5 6 13 31 19 55 5 24 12 56 16 72 12 49 -21 31 -50 -29 -15
-30 -34 -58 -41 -61 -8 -3 -20 -24 -26 -47 -6 -22 -19 -50 -29 -61 -10 -11
-20 -29 -22 -39 -2 -13 -15 -23 -36 -28 -21 -6 -36 -18 -42 -32 -5 -13 -14
-27 -19 -31 -6 -3 -11 -14 -11 -23 -1 -30 -197 -144 -274 -159 -29 -5 -86 16
-86 32 0 8 -9 19 -20 25 -25 13 -51 1 -70 -34 -7 -14 -17 -26 -22 -26 -4 0 -8
-8 -8 -18 0 -26 -20 -42 -52 -42 -23 0 -28 -4 -28 -24 0 -14 -4 -28 -10 -31
-5 -3 -10 -14 -10 -24 0 -11 -12 -24 -29 -31 -16 -6 -31 -20 -34 -30 -3 -10
-18 -21 -36 -25 -18 -4 -35 -14 -38 -23 -10 -30 -76 -92 -98 -92 -23 -1 -55
-22 -55 -37 0 -6 -12 -19 -27 -29 -16 -10 -36 -28 -46 -41 -10 -13 -26 -23
-35 -23 -10 0 -30 -13 -45 -30 -16 -16 -39 -30 -51 -30 -13 0 -35 -11 -50 -25
-15 -14 -38 -25 -50 -25 -14 0 -30 -10 -39 -24 -9 -13 -33 -30 -54 -36 -21 -7
-49 -23 -63 -35 -14 -12 -41 -25 -60 -29 -20 -3 -43 -15 -52 -25 -11 -13 -36
-22 -73 -26 -42 -6 -60 -13 -71 -30 -11 -17 -31 -25 -81 -33 -41 -7 -72 -18
-84 -31 -31 -33 -171 -40 -177 -8 -7 34 44 101 82 108 11 3 25 21 35 46 18 47
103 143 126 143 8 0 15 7 15 15 0 27 -35 16 -107 -34 -39 -26 -84 -54 -101
-62 -17 -7 -35 -24 -41 -36 -6 -13 -17 -23 -25 -23 -9 0 -20 -9 -26 -21 -7
-11 -26 -27 -43 -34 -18 -8 -58 -39 -89 -69 -32 -30 -66 -57 -76 -61 -11 -3
-24 -17 -30 -30 -6 -14 -16 -25 -21 -25 -6 0 -24 -14 -41 -30 -20 -19 -41 -30
-59 -30 -20 0 -34 -8 -45 -25 -9 -14 -26 -25 -39 -25 -27 0 -41 -10 -49 -31
-4 -9 -28 -22 -54 -28 -26 -7 -60 -21 -75 -32 -21 -15 -44 -19 -107 -19 l-80
0 -41 40 c-39 39 -41 43 -41 103 1 39 6 69 16 82 8 11 19 38 25 60 7 23 29 60
55 87 24 26 44 56 44 68 0 31 -36 25 -73 -12 -18 -17 -33 -31 -35 -30 -9 7
-52 -13 -52 -24 0 -8 -15 -20 -34 -28 -19 -8 -37 -23 -40 -34 -4 -11 -19 -22
-35 -25 -17 -4 -30 -14 -34 -26 -2 -11 -21 -27 -42 -35 -20 -9 -50 -27 -67
-41 -29 -25 -35 -26 -147 -23 l-116 3 -3 50 c-4 56 14 121 34 129 8 3 14 12
14 21 0 8 4 15 9 15 5 0 31 30 57 68 26 37 52 69 56 70 4 2 8 8 8 13 0 16 54
79 68 79 7 0 17 12 23 28 6 15 19 36 30 47 39 40 67 81 88 128 12 26 26 47 31
47 5 0 14 17 19 38 6 20 21 55 33 77 21 37 23 54 25 205 2 152 -7 235 -28 285
-46 108 -58 132 -72 143 -23 19 -53 11 -48 -13 2 -11 6 -77 8 -147 4 -110 2
-135 -15 -181 -11 -29 -23 -75 -27 -101 -8 -54 -46 -117 -76 -128 -10 -4 -19
-14 -19 -23 0 -9 -12 -18 -31 -22 -20 -4 -34 -14 -40 -29 -18 -49 -109 -13
-109 44 0 11 -5 24 -11 28 -26 16 8 335 40 379 4 6 14 30 21 55 16 52 96 216
109 225 5 3 17 28 26 55 9 28 21 50 26 50 5 0 9 14 9 30 0 34 -15 37 -68 14z"/>
<path d="M824 2559 c-10 -11 -15 -20 -13 -22 56 -33 69 -34 69 -7 0 12 7 20
16 20 9 0 14 6 12 12 -7 20 -65 18 -84 -3z"/>
<path d="M760 2505 c0 -8 6 -15 14 -15 22 0 28 17 10 24 -22 9 -24 8 -24 -9z"/>
<path d="M10080 2439 c0 -5 5 -7 10 -4 6 3 10 8 10 11 0 2 -4 4 -10 4 -5 0
-10 -5 -10 -11z"/>
<path d="M895 2260 c-4 -7 -3 -16 3 -22 14 -14 47 -6 47 12 0 18 -40 26 -50
10z"/>
<path d="M887 2203 c-16 -16 -5 -33 21 -33 35 0 45 9 31 27 -12 14 -41 18 -52
6z"/>
<path d="M1040 2200 c0 -5 -18 -10 -40 -10 -22 0 -40 -5 -40 -10 0 -6 26 -10
60 -9 48 1 63 6 71 20 8 17 6 19 -21 19 -16 0 -30 -4 -30 -10z"/>
<path d="M960 2115 c0 -22 4 -25 40 -25 36 0 40 3 40 25 0 23 -4 25 -40 25
-36 0 -40 -2 -40 -25z"/>
<path d="M1120 2020 c0 -5 12 -10 26 -10 14 0 23 4 19 10 -3 6 -15 10 -26 10
-10 0 -19 -4 -19 -10z"/>
<path d="M1200 1926 c0 -9 7 -12 21 -9 16 4 17 8 7 14 -19 13 -28 11 -28 -5z"/>
<path d="M1360 1844 c0 -8 5 -12 10 -9 6 4 8 11 5 16 -9 14 -15 11 -15 -7z"/>
<path d="M1416 1821 c-6 -10 43 -25 52 -16 3 3 -2 5 -11 5 -9 0 -17 5 -17 10
0 12 -17 13 -24 1z"/>
<path d="M1407 1784 c-9 -10 2 -24 19 -24 8 0 14 7 14 15 0 15 -21 21 -33 9z"/>
<path d="M1220 1632 c0 -23 19 -42 42 -42 24 0 23 15 -2 40 -25 25 -40 26 -40
2z"/>
<path d="M10106 1635 c4 -8 10 -12 15 -9 14 8 10 24 -6 24 -9 0 -12 -6 -9 -15z"/>
<path d="M1455 1619 c-4 -6 -4 -13 -1 -16 8 -8 36 5 36 17 0 13 -27 13 -35 -1z"/>
<path d="M10060 1580 c-9 -16 -8 -20 5 -20 8 0 15 9 15 20 0 11 -2 20 -5 20
-2 0 -9 -9 -15 -20z"/>
<path d="M9760 1500 c0 -40 -15 -54 -26 -25 -4 8 -17 15 -30 15 -29 0 -33 -36
-7 -56 26 -18 11 -26 -46 -27 -46 -1 -51 -3 -51 -24 0 -16 6 -23 20 -23 11 0
29 -9 39 -19 20 -20 20 -20 0 -26 -26 -9 -59 3 -59 21 0 19 -9 18 -48 -6 -18
-11 -30 -25 -27 -30 10 -17 85 -51 96 -44 6 3 21 3 35 0 18 -5 24 -13 24 -34
0 -36 -34 -59 -57 -40 -13 10 -17 10 -20 1 -3 -8 -22 -13 -45 -13 l-41 0 39
-26 c23 -16 40 -22 42 -15 5 15 79 14 85 -1 2 -7 11 1 20 18 15 28 15 32 -1
47 -15 16 -15 19 10 44 23 23 34 26 78 24 50 -2 50 -2 50 29 0 31 -1 31 -42
30 -63 -3 -63 -3 -65 30 -3 39 25 54 88 47 27 -3 51 -2 54 4 4 5 1 9 -4 9 -6
0 -11 18 -11 40 0 29 -4 40 -15 40 -11 0 -15 -11 -15 -40 0 -38 -2 -40 -30
-40 -28 0 -30 2 -30 39 0 22 5 41 11 43 7 2 9 13 5 26 -12 35 -26 25 -26 -18z"/>
<path d="M9920 1526 c0 -9 19 -15 58 -19 31 -4 67 -10 80 -13 41 -11 25 22
-17 34 -54 17 -121 16 -121 -2z"/>
<path d="M9920 1450 c0 -29 4 -40 15 -40 11 0 15 11 15 40 0 29 -4 40 -15 40
-11 0 -15 -11 -15 -40z"/>
<path d="M1525 1420 c-3 -5 1 -10 9 -10 9 0 16 5 16 10 0 6 -4 10 -9 10 -6 0
-13 -4 -16 -10z"/>
<path d="M10011 1426 c-2 -19 30 -44 50 -39 22 6 26 23 5 23 -8 0 -17 6 -19
13 -4 9 -8 9 -15 -2 -8 -11 -10 -11 -15 0 -3 8 -6 10 -6 5z"/>
<path d="M9890 1366 c0 -8 7 -16 15 -20 10 -4 15 1 15 14 0 11 -7 20 -15 20
-8 0 -15 -6 -15 -14z"/>
<path d="M10018 1353 c-10 -3 -18 -13 -18 -24 0 -16 -7 -19 -40 -19 -29 0 -40
-4 -40 -15 0 -11 12 -15 51 -15 64 0 98 -20 123 -71 11 -21 22 -39 25 -39 7 0
41 58 41 71 0 5 -9 9 -20 9 -11 0 -20 7 -20 15 0 8 -9 15 -20 15 -13 0 -20 7
-20 18 0 24 -40 60 -62 55z"/>
<path d="M9778 1333 c12 -2 32 -2 45 0 12 2 2 4 -23 4 -25 0 -35 -2 -22 -4z"/>
<path d="M1592 1246 c7 -8 17 -12 22 -9 4 3 2 9 -5 14 -22 13 -31 11 -17 -5z"/>
<path d="M9549 1211 c12 -8 51 -4 51 5 0 2 -15 4 -32 4 -23 0 -29 -3 -19 -9z"/>
<path d="M9747 1180 c-16 -16 -17 -21 -6 -42 l13 -23 7 30 c5 24 7 20 8 -22 1
-31 -3 -52 -9 -50 -6 1 -16 -9 -23 -23 -7 -13 -21 -25 -32 -26 -11 0 -39 -1
-62 -2 l-43 -2 0 -45 c0 -33 4 -45 15 -45 11 0 15 11 15 40 l0 40 79 0 c61 0
80 -3 85 -15 3 -8 16 -15 29 -15 14 0 30 7 37 15 16 20 36 19 44 -1 4 -9 5
-17 4 -18 -24 -9 -43 -27 -42 -39 2 -18 -23 -31 -31 -17 -4 6 -22 10 -41 10
-30 0 -34 3 -35 28 l-1 27 -11 -27 c-8 -21 -18 -28 -39 -28 -15 0 -28 -4 -28
-10 0 -5 -18 -10 -40 -10 -29 0 -40 -4 -40 -15 0 -11 11 -15 40 -15 28 0 40
-4 40 -14 0 -9 12 -16 28 -18 l27 -3 -29 -27 c-21 -21 -39 -28 -67 -28 -34 0
-39 -3 -39 -24 0 -13 7 -26 15 -30 8 -3 15 -14 15 -24 0 -11 14 -25 36 -35 19
-10 34 -23 31 -30 -4 -13 -52 -15 -77 -3 -10 4 -24 -2 -37 -14 -28 -25 -99
-29 -89 -4 3 9 6 27 6 40 0 22 4 24 53 26 50 1 50 2 10 5 -24 2 -43 8 -43 14
0 5 -18 9 -40 9 -45 0 -51 -13 -25 -58 8 -15 19 -39 24 -53 7 -21 15 -26 33
-22 26 5 75 -38 64 -56 -8 -12 -65 -41 -81 -41 -7 0 -23 -13 -36 -29 -23 -27
-58 -45 -88 -46 -8 0 -16 -6 -19 -13 -2 -8 7 -12 27 -12 17 0 31 -4 31 -10 0
-5 -16 -10 -35 -10 -34 0 -35 -1 -35 -40 0 -36 3 -40 25 -40 26 0 29 -7 19
-34 -8 -21 -24 -21 -24 0 0 13 -6 15 -27 9 -16 -4 -52 -9 -80 -12 -29 -3 -53
-9 -53 -15 0 -6 -7 -7 -16 -4 -15 6 -29 -19 -48 -81 -7 -21 -4 -23 29 -23 36
0 37 1 34 38 -1 20 -1 43 0 50 1 15 81 17 81 2 0 -5 9 -10 20 -10 36 0 71 -99
50 -140 -4 -8 -4 -24 1 -35 7 -17 8 -17 8 8 1 30 18 35 54 16 16 -9 22 -9 25
0 8 23 22 10 16 -14 -6 -23 -3 -25 25 -25 23 0 31 4 31 18 0 10 3 22 6 25 10
10 44 -12 44 -28 0 -13 43 -15 300 -15 235 0 300 3 300 13 0 7 9 18 20 25 21
13 27 46 11 57 -6 3 -6 17 1 36 5 16 8 38 5 49 -3 10 -1 54 4 97 7 61 6 80 -4
88 -11 8 -12 27 -6 84 8 73 1 106 -25 123 -7 5 -7 24 2 65 10 47 9 60 -2 71
-19 19 -10 140 13 165 14 17 14 21 -2 49 -12 22 -15 34 -7 42 13 13 13 56 0
56 -5 0 -10 7 -10 16 0 9 -8 23 -17 30 -16 11 -16 16 -5 35 10 15 11 24 3 28
-10 6 -108 7 -248 3 l-52 -2 -4 -42 c-3 -41 -4 -41 -5 10 -2 47 0 52 19 52 18
0 19 2 9 15 -18 22 -90 19 -113 -5z m197 -58 c7 -12 -5 -52 -15 -52 -5 0 -9
14 -9 30 0 28 13 40 24 22z m124 -9 c-10 -2 -26 -2 -35 0 -10 3 -2 5 17 5 19
0 27 -2 18 -5z m-274 -251 c2 -4 -4 -13 -15 -20 -16 -11 -19 -9 -19 8 0 19 24
28 34 12z m-34 -122 c0 -5 -18 -10 -40 -10 -22 0 -40 5 -40 10 0 6 18 10 40
10 22 0 40 -4 40 -10z"/>
<path d="M10057 1193 c-12 -11 -8 -23 8 -23 8 0 15 7 15 15 0 16 -12 20 -23 8z"/>
<path d="M9950 1180 c0 -5 5 -10 10 -10 6 0 10 5 10 10 0 6 -4 10 -10 10 -5 0
-10 -4 -10 -10z"/>
<path d="M9623 1083 c15 -2 39 -2 55 0 15 2 2 4 -28 4 -30 0 -43 -2 -27 -4z"/>
<path d="M1713 933 c-34 -14 -44 -33 -18 -33 16 0 75 27 75 34 0 12 -29 11
-57 -1z"/>
<path d="M1752 868 c5 -15 28 -18 29 -3 0 6 -7 12 -17 13 -10 3 -15 -1 -12
-10z"/>
<path d="M9487 804 c-13 -14 16 -34 49 -34 31 0 45 12 27 23 -17 10 -69 17
-76 11z"/>
<path d="M2111 674 c0 -11 3 -14 6 -6 3 7 2 16 -1 19 -3 4 -6 -2 -5 -13z"/>
<path d="M2058 523 c7 -3 16 -2 19 1 4 3 -2 6 -13 5 -11 0 -14 -3 -6 -6z"/>
<path d="M2365 219 c-6 -27 -1 -49 9 -38 10 11 17 69 8 69 -6 0 -13 -14 -17
-31z"/>
<path d="M9040 240 c0 -5 7 -10 16 -10 8 0 12 5 9 10 -3 6 -10 10 -16 10 -5 0
-9 -4 -9 -10z"/>
<path d="M2466 193 c-4 -9 -2 -21 4 -27 7 -7 10 -2 10 17 0 31 -5 34 -14 10z"/>
<path d="M9230 200 c0 -5 4 -10 9 -10 6 0 13 5 16 10 3 6 -1 10 -9 10 -9 0
-16 -4 -16 -10z"/>
<path d="M9096 174 c-9 -8 -16 -19 -16 -24 0 -5 -10 -11 -22 -13 -13 -2 -4 -5
20 -6 40 -1 42 0 42 29 0 34 -3 36 -24 14z"/>
<path d="M9162 118 c-45 -10 -53 -30 -14 -36 30 -5 28 -20 -3 -28 -14 -3 -25
-12 -25 -20 0 -11 19 -14 85 -14 69 0 85 3 85 15 0 8 7 15 15 15 17 0 18 2 9
24 -7 17 -34 22 -34 6 0 -23 -40 -8 -55 20 -9 17 -17 30 -18 29 -1 -1 -21 -5
-45 -11z"/>
<path d="M8880 65 c0 -6 -17 -10 -37 -10 -28 0 -38 -5 -41 -17 -3 -16 6 -18
77 -18 65 0 81 3 81 15 0 10 -10 15 -28 15 -15 0 -33 5 -40 12 -7 7 -12 8 -12
3z"/>
</g>
</svg>
