<?xml version="1.0" standalone="no"?>
<!DOCTYPE svg PUBLIC "-//W3C//DTD SVG 20010904//EN"
 "http://www.w3.org/TR/2001/REC-SVG-20010904/DTD/svg10.dtd">
<svg version="1.0" xmlns="http://www.w3.org/2000/svg"
 width="512.000000pt" height="512.000000pt" viewBox="0 0 512.000000 512.000000"
 preserveAspectRatio="xMidYMid meet">
<metadata>
Created by potrace 1.11, written by Peter Selinger 2001-2013
</metadata>
<g transform="translate(0.000000,512.000000) scale(0.100000,-0.100000)"
fill="#000000" stroke="none">
<path d="M3390 3554 c-25 -8 -54 -19 -65 -23 -11 -5 -65 -23 -120 -40 -55 -18
-109 -36 -120 -40 -11 -5 -65 -23 -120 -40 -55 -18 -109 -36 -120 -40 -11 -5
-65 -23 -120 -40 -55 -18 -109 -36 -120 -40 -11 -5 -65 -23 -120 -40 -55 -18
-109 -36 -120 -41 -11 -4 -67 -23 -125 -41 -58 -18 -109 -36 -115 -41 -5 -4
-19 -8 -31 -8 -28 0 -94 -61 -94 -87 0 -10 -4 -23 -8 -29 -5 -5 -23 -56 -41
-114 -18 -58 -37 -114 -41 -125 -5 -11 -23 -65 -41 -120 -17 -55 -35 -109 -40
-120 -4 -11 -22 -65 -40 -120 -17 -55 -35 -109 -40 -120 -4 -11 -22 -65 -40
-120 -17 -55 -35 -109 -40 -120 -4 -11 -22 -65 -40 -120 -17 -55 -35 -109 -39
-120 -21 -52 -40 -121 -40 -147 0 -65 44 -108 109 -108 16 0 339 103 717 229
609 203 692 233 713 259 28 34 480 1379 481 1431 0 25 -9 42 -34 67 -39 39
-72 43 -146 18z"/>
</g>
</svg>
